<?xml version="1.0" encoding="UTF-8"?>
<svg width="411px" height="82px" viewBox="0 0 411 82" version="1.1" xmlns="http://www.w3.org/2000/svg" xmlns:xlink="http://www.w3.org/1999/xlink">
    <!-- Generator: Sketch 42 (36781) - http://www.bohemiancoding.com/sketch -->
    <title>Page 1</title>
    <desc>Created with Sketch.</desc>
    <defs>
        <polygon id="path-1" points="2.95138805e-15 81.9366826 2.95138805e-15 0.000186647359 411.017969 0.000186647359 411.017969 81.9366826 0 81.9366826"></polygon>
    </defs>
    <g id="Ideas-08---approved" stroke="none" stroke-width="1" fill="none" fill-rule="evenodd">
        <g id="Template---Home-Copy-2" transform="translate(-424.000000, -413.000000)">
            <g id="Page-1" transform="translate(424.000000, 413.000000)">
                <mask id="mask-2" fill="white">
                    <use xlink:href="#path-1"></use>
                </mask>
                <g id="Clip-2"></g>
                <path d="M8.0271,34.4038 C8.6281,33.7008 10.0231,34.1548 10.0171,33.0258 C10.0091,31.3318 11.0811,31.1518 12.3171,31.0788 C13.1631,31.0288 14.0581,30.2428 13.4281,29.8658 C10.8551,28.3248 13.2511,26.8828 13.3421,25.3058 C12.3751,24.7498 11.4091,24.1958 10.1981,23.4998 C12.1641,23.0908 13.8161,22.6368 15.4991,22.4288 C17.1031,22.2308 17.9121,21.2598 18.1091,19.8868 C18.3501,18.1988 16.8221,18.2478 15.7461,17.9028 C15.0881,17.6908 14.2361,17.7468 13.9271,16.5128 C15.8701,15.8008 18.5771,15.9048 18.7761,12.7638 C18.8291,11.9268 20.1801,11.9428 21.0631,11.8248 C29.7621,10.6588 38.1301,7.9408 46.9841,7.2098 C60.3291,6.1088 73.6701,5.1788 87.0451,4.7348 C100.8821,4.2738 114.7291,4.0988 128.5651,3.6178 C144.7621,3.0548 160.9551,2.5388 177.1621,3.0298 C195.8611,3.5978 214.5661,3.6498 233.2721,3.7338 C257.5811,3.8428 281.8981,4.3788 306.1941,3.5268 C319.8551,3.0478 333.5211,2.3988 347.1741,1.4188 C359.9241,0.5038 372.7201,-0.5872 385.5601,0.3738 C389.6271,0.6778 392.9581,1.8798 395.4641,5.1798 C398.2041,8.7888 402.0011,11.5708 403.7611,15.9518 C406.1641,21.9298 407.5901,28.1568 408.5641,34.4968 C409.3671,39.7238 410.0471,44.9698 409.6381,50.2818 C409.5651,51.2378 410.1411,51.9408 410.4351,52.7578 C410.8331,53.8688 411.1191,55.0208 410.9841,56.2228 C410.6811,58.9028 405.6941,65.6528 403.1601,66.8648 C400.2501,68.2578 397.2381,69.4848 394.4781,71.1328 C391.2361,73.0678 387.7061,73.9598 384.0991,74.4778 C372.7231,76.1118 361.2661,76.9368 349.7821,77.0968 C344.0331,77.1768 338.3641,78.0998 332.6231,78.1948 C327.4731,78.2788 322.3301,78.7128 317.1811,78.9368 C305.7181,79.4358 294.2561,80.1178 282.7881,80.2848 C277.2491,80.3648 271.6561,80.1318 266.1221,80.1178 C258.1161,80.0978 250.0961,80.2608 242.0821,80.1168 C232.4121,79.9428 222.7411,79.7128 213.0731,79.4378 C198.3771,79.0188 183.6891,78.7618 168.9831,79.3568 C158.7371,79.7708 148.4671,79.5288 138.2101,79.6988 C129.2381,79.8468 120.2651,79.7658 111.2911,80.1308 C107.6751,80.2768 103.9861,79.9138 100.3431,80.0458 C85.5101,80.5798 70.6641,80.2488 55.8311,81.0898 C47.3341,81.5708 38.8101,82.2658 30.2811,81.7608 C23.9301,81.3858 17.8441,79.7438 12.1411,76.9788 C9.3551,75.6278 7.3811,73.1098 5.3611,70.7768 C4.1131,69.3348 2.9101,67.8558 1.6691,66.4078 C-0.2619,64.1538 -0.7219,62.9578 1.3821,61.2228 C3.6621,59.3438 2.6121,58.2698 1.5131,56.7518 C0.8371,55.8168 -0.1219,54.9398 0.6871,53.6108 C1.3541,52.5178 1.7341,51.0648 3.5541,51.4808 C4.9621,51.8018 5.2961,51.4378 5.0041,49.8608 C4.6741,48.0858 7.1901,45.3938 8.9791,45.7058 C11.3481,46.1188 11.8331,44.9388 11.9281,43.1658 C12.0001,41.8418 12.0231,40.6038 12.6371,39.3278 C14.1311,36.2268 13.5691,35.2778 10.2631,34.7528 C9.5411,34.6378 8.8181,34.5278 8.0271,34.4038" id="Fill-1" fill="#17C37B" mask="url(#mask-2)"></path>
            </g>
        </g>
    </g>
</svg>