<?xml version="1.0" encoding="UTF-8"?>
<svg width="426px" height="89px" viewBox="0 0 426 89" version="1.1" xmlns="http://www.w3.org/2000/svg" xmlns:xlink="http://www.w3.org/1999/xlink">
    <!-- Generator: Sketch 42 (36781) - http://www.bohemiancoding.com/sketch -->
    <title>Page 1</title>
    <desc>Created with Sketch.</desc>
    <defs>
        <polygon id="path-1" points="0 88.921 0 0 425.248 0 425.248 88.921"></polygon>
    </defs>
    <g id="Ideas-08---approved" stroke="none" stroke-width="1" fill="none" fill-rule="evenodd">
        <g id="Template---Home-Copy-2" transform="translate(-176.000000, -367.000000)">
            <g id="hero" transform="translate(-11.000000, -624.000000)">
                <g id="Page-1" transform="translate(187.000000, 991.000000)">
                    <mask id="mask-2" fill="white">
                        <use xlink:href="#path-1"></use>
                    </mask>
                    <g id="Clip-2"></g>
                    <path d="M106.279,0.2385 C124.05,-0.2745 141.266,0.0465 158.461,1.1295 C173.145,2.0535 187.817,3.1865 202.501,4.1145 C207.793,4.4485 213.116,4.2835 218.404,4.6465 C232.186,5.5915 246.006,5.8675 259.75,7.5615 C267.77,8.5495 275.903,8.6545 284.008,8.7175 C295.645,8.8075 307.288,8.8135 318.918,9.1765 C323.762,9.3275 328.604,9.5495 333.454,9.6185 C342.451,9.7455 351.356,8.5335 360.3,7.8895 C368.922,7.2695 377.481,6.0305 386.159,5.8545 C391.112,5.7545 396.008,5.1095 401.002,5.8105 C403.333,6.1375 405.263,6.7745 406.912,8.3355 C409.375,10.6665 412.041,12.7425 414.668,14.8795 C416.931,16.7205 418.528,19.0605 419.227,22.1905 C419.946,25.4135 421.924,28.3365 422.873,31.5325 C424.375,36.5895 425.237,41.8015 425.248,47.1125 C425.25,48.0155 424.932,48.8105 424.49,49.6085 C423.535,51.3355 423.149,53.2375 423.739,55.1355 C424.232,56.7225 423.858,58.2825 423.066,59.3505 C421.411,61.5785 422.257,64.5415 420.444,66.7055 C419.63,67.6765 421.096,68.0055 421.716,68.5135 C422.88,69.4705 423.041,70.5125 421.592,71.2805 C420.756,71.7235 419.986,72.1975 419.868,73.1225 C419.485,76.1545 418.282,76.5125 415.846,74.7535 C414.686,73.9165 411.938,75.6075 412.017,77.3015 C412.086,78.7675 411.416,79.1405 410.504,79.4285 C408.969,79.9125 407.416,80.3855 405.749,80.2805 C403.808,80.1565 401.625,79.3755 400.777,82.3045 C400.622,82.8385 399.227,83.3425 398.375,82.9065 C396.171,81.7805 393.989,82.6355 391.873,82.9505 C384.185,84.0945 376.428,84.3275 368.705,84.9885 C358.902,85.8265 349.136,87.1535 339.323,87.8035 C328.047,88.5515 316.765,89.0705 305.425,88.8825 C295.144,88.7115 284.866,88.3545 274.586,88.1585 C261.533,87.9105 248.519,86.7885 235.49,85.9895 C229.081,85.5965 222.643,85.3475 216.232,84.8995 C203.474,84.0075 190.679,83.2955 178.011,81.6475 C171.63,80.8175 165.288,81.3275 158.959,80.6305 C155.603,80.2605 152.216,80.1965 148.843,79.8345 C142.883,79.1935 136.879,78.9595 130.895,78.5185 C115.934,77.4165 100.936,77.7585 85.957,77.5535 C77.151,77.4325 68.317,77.4635 59.496,78.2535 C51.736,78.9475 43.919,79.0735 36.123,79.2635 C32.462,79.3525 28.948,80.7225 25.215,80.1825 C22.898,79.8475 20.596,79.9115 19,77.7065 C18.005,76.3325 16.13,76.3415 14.721,75.5565 C12.158,74.1295 9.274,73.1335 8.887,69.5965 C8.862,69.3675 8.533,69.1475 8.311,68.9675 C4.959,66.2515 4.297,61.9405 2.119,58.5275 C0.966,56.7215 -0.043,55.1995 1.719,52.7465 C2.833,51.1955 1.625,48.5305 0.787,46.4775 C0.468,45.6965 -0.486,44.4735 0.308,44.1195 C3.35,42.7595 2.059,39.1195 4.262,37.3285 C6.96,35.1345 5.834,31.2815 7.618,28.6045 C7.754,28.4025 7.096,27.6445 6.772,27.1695 C6.45,26.6985 5.714,25.9465 6.198,25.6985 C8.615,24.4645 7.539,20.4565 10.981,20.0035 C12.739,19.7725 13.504,18.4175 12.417,16.7385 C11.658,15.5675 12.135,14.9265 12.963,14.1525 C14.814,12.4215 16.298,10.2215 19.06,9.7315 C21.568,9.2875 23.441,7.4775 25.707,6.4645 C29.166,4.9195 32.741,4.1695 36.352,3.8615 C59.8,1.8595 83.23,-0.6095 106.279,0.2385" id="Fill-1" fill="#17C37B" mask="url(#mask-2)"></path>
                </g>
            </g>
        </g>
    </g>
</svg>