<?xml version="1.0" encoding="UTF-8"?>
<svg width="205px" height="297px" viewBox="0 0 205 297" version="1.1" xmlns="http://www.w3.org/2000/svg" xmlns:xlink="http://www.w3.org/1999/xlink">
    <!-- Generator: Sketch 42 (36781) - http://www.bohemiancoding.com/sketch -->
    <title>Group</title>
    <desc>Created with Sketch.</desc>
    <defs></defs>
    <g id="Ideas-08---approved" stroke="none" stroke-width="1" fill="none" fill-rule="evenodd">
        <g id="Template---Home-Copy-5" transform="translate(-1058.000000, -447.000000)" fill="#17C37B">
            <g id="Group" transform="translate(1160.040151, 625.040151) rotate(-315.000000) translate(-1160.040151, -625.040151) translate(1023.540151, 488.540151)">
                <polygon id="Path" points="18.56761 68.743333 11.4578998 62.6581921 6.37953538 57.5872414 2.31684384 48.45953 0.285498071 40.8531039 0.285498071 30.7112025 4.34818961 18.5409207 10.4422269 11.9486848 16.5362642 7.3848291 24.6616473 3.32806851 34.3105397 0.285498071 47.0064508 1.80678329 58.1788525 7.3848291 66.812072 18.0338256 72.3982729 30.2041074 73.4139457 35.2750581 73.4139457 40.8531039 71.8904364 48.9666251 67.8277449 57.0801463 60.2101982 64.1794773 47.5142872 70.7717133 32.2791939 72.2929985"></polygon>
                <polygon id="Path" points="135.512653 272.200668 132.218937 271.650506 125.631504 269.449858 119.044072 262.847916 116.299308 257.346297 115.750355 246.893222 115.750355 232.038852 116.848261 222.135939 116.848261 209.482216 115.750355 197.378656 115.201403 190.776713 112.456639 185.275095 108.065018 181.423962 99.830727 179.773476 91.5964364 179.223314 65.2467065 178.122991 50.4249834 178.122991 36.1522131 175.372181 30.662686 171.521048 26.2710644 163.268621 22.9773481 147.313927 24.6242062 134.110042 27.3689698 126.957938 31.7605914 119.805834 37.7990712 117.055025 44.9354564 114.854378 59.2082267 114.854378 70.1872808 115.954701 80.0684296 115.954701 88.3027201 117.055025 99.830727 116.504863 111.358734 113.754054 114.65245 106.60195 115.201403 89.5469323 114.65245 73.0420767 115.201403 63.6893252 115.750355 53.23625 116.848261 44.4336604 120.141977 35.0809089 125.082551 27.9288048 130.023126 25.1779955 143.197991 23.52751 158.568667 22.9773481 165.705052 24.0776718 170.645626 25.7281574 177.233059 32.8802615 179.428869 42.233013 179.977822 49.9352789 181.075727 59.2880304 181.075727 69.7411056 181.62468 81.8446664 181.62468 101.100331 182.722586 107.702273 184.369444 110.453083 188.761065 112.65373 200.838025 115.404539 221.698228 117.055025 235.970998 117.605187 246.950052 117.605187 259.027012 120.355996 266.163397 123.656967 269.457113 128.608424 271.652924 135.760528 271.652924 142.36247 272.750829 155.016193 271.652924 166.01943 267.810255 173.171534 260.67387 177.572829 256.282248 178.673153 250.792721 179.773476 245.852147 179.223314 238.715762 178.673153 199.191167 178.122991 184.918396 179.773476 181.075727 183.074447 179.977822 186.375418 179.977822 195.178008 179.428869 200.679627 179.428869 225.43691 179.977822 233.689338 179.428869 241.941766 178.879917 252.945003 177.233059 258.996783 172.292484 266.148887 158.568667 272.750829 143.197991 272.750829"></polygon>
            </g>
        </g>
    </g>
</svg>