<?xml version="1.0" encoding="UTF-8"?>
<svg width="870px" height="115px" viewBox="0 0 870 115" version="1.1" xmlns="http://www.w3.org/2000/svg" xmlns:xlink="http://www.w3.org/1999/xlink">
    <!-- Generator: Sketch 43.2 (39069) - http://www.bohemiancoding.com/sketch -->
    <title>intro</title>
    <desc>Created with Sketch.</desc>
    <defs></defs>
    <g id="Ideas-08---approved" stroke="none" stroke-width="1" fill="none" fill-rule="evenodd">
        <g id="Template---Home-Copy-8" transform="translate(-289.000000, -223.000000)">
            <g id="intro" transform="translate(289.000000, 222.000000)">
                <path d="M30.3525,53.61 L30.3525,50.64 L67.0725,50.64 L67.0725,53.61 L30.3525,53.61 Z M12.3975,79.26 L12.3975,27.69 C12.3975,22.1099721 11.5650083,18.2400108 9.9,16.08 C8.23499167,13.9199892 5.0625234,12.5700027 0.3825,12.03 L0.3825,10.95 L37.6425,10.95 L37.6425,12.03 C32.9624766,12.5700027 29.7900083,13.9199892 28.125,16.08 C26.4599917,18.2400108 25.6275,22.1099721 25.6275,27.69 L25.6275,79.26 C25.6275,84.8400279 26.4599917,88.7099892 28.125,90.87 C29.7900083,93.0300108 32.9624766,94.3799973 37.6425,94.92 L37.6425,96 L0.3825,96 L0.3825,94.92 C5.0625234,94.3799973 8.23499167,93.0300108 9.9,90.87 C11.5650083,88.7099892 12.3975,84.8400279 12.3975,79.26 Z M85.0275,27.69 L85.0275,79.26 C85.0275,84.8400279 85.8599917,88.7099892 87.525,90.87 C89.1900083,93.0300108 92.3624766,94.3799973 97.0425,94.92 L97.0425,96 L59.7825,96 L59.7825,94.92 C64.4625234,94.3799973 67.6349917,93.0300108 69.3,90.87 C70.9650083,88.7099892 71.7975,84.8400279 71.7975,79.26 L71.7975,27.69 C71.7975,22.1099721 70.9650083,18.2400108 69.3,16.08 C67.6349917,13.9199892 64.4625234,12.5700027 59.7825,12.03 L59.7825,10.95 L97.0425,10.95 L97.0425,12.03 C92.3624766,12.5700027 89.1900083,13.9199892 87.525,16.08 C85.8599917,18.2400108 85.0275,22.1099721 85.0275,27.69 Z M130.1175,38.49 L130.1175,39.57 C126.427482,40.2000032 123.480011,42.6524786 121.275,46.9275 C119.069989,51.2025214 117.9675,56.3999694 117.9675,62.52 C117.9675,69.720036 119.767482,75.7724755 123.3675,80.6775 C126.967518,85.5825245 131.962468,88.035 138.3525,88.035 C146.722542,88.035 152.977479,85.1550288 157.1175,79.395 L157.7925,79.935 C156.262492,83.9850203 153.360021,87.8549816 149.085,91.545 C144.809979,95.2350185 139.522531,97.08 133.2225,97.08 C125.032459,97.08 118.530024,94.2900279 113.715,88.71 C108.899976,83.1299721 106.4925,76.2900405 106.4925,68.19 C106.4925,60.2699604 108.899976,53.5200279 113.715,47.94 C118.530024,42.3599721 123.997469,39.2100036 130.1175,38.49 Z M155.4975,58.74 L122.9625,58.74 L122.9625,57.795 L143.6175,56.175 C142.897496,45.374946 139.747528,39.7500023 134.1675,39.3 L134.1675,38.22 C140.19753,38.4000009 145.25998,40.5374795 149.355,44.6325 C153.45002,48.7275205 155.4975,53.4299735 155.4975,58.74 Z M170.4825,82.5 L170.4825,18.51 C170.4825,15.3599843 169.267512,12.7950099 166.8375,10.815 C165.667494,9.82499505 164.497506,9.0600027 163.3275,8.52 L163.3275,7.71 L182.2275,0.96 L182.4975,1.095 C182.227499,12.1650554 182.0925,18.4649924 182.0925,19.995 L182.0925,82.5 C182.0925,86.9100221 182.699994,89.9699915 183.915,91.68 C185.130006,93.3900086 187.492482,94.4699978 191.0025,94.92 L191.0025,96 L161.7075,96 L161.7075,94.92 C165.397518,94.4699978 167.782495,93.4350081 168.8625,91.815 C169.942505,90.1949919 170.4825,87.090023 170.4825,82.5 Z M204.3675,82.5 L204.3675,18.51 C204.3675,15.3599843 203.152512,12.7950099 200.7225,10.815 C199.552494,9.82499505 198.382506,9.0600027 197.2125,8.52 L197.2125,7.71 L216.1125,0.96 L216.3825,1.095 C216.112499,12.1650554 215.9775,18.4649924 215.9775,19.995 L215.9775,82.5 C215.9775,86.9100221 216.584994,89.9699915 217.8,91.68 C219.015006,93.3900086 221.377482,94.4699978 224.8875,94.92 L224.8875,96 L195.5925,96 L195.5925,94.92 C199.282518,94.4699978 201.667495,93.4350081 202.7475,91.815 C203.827505,90.1949919 204.3675,87.090023 204.3675,82.5 Z M243.2475,67.65 C243.2475,81.3300684 246.892464,90.1049807 254.1825,93.975 C256.522512,95.2350063 258.502492,95.9099996 260.1225,96 L260.1225,97.08 C251.842459,96.8999991 244.845029,94.1775263 239.13,88.9125 C233.414971,83.6474737 230.5575,76.6500437 230.5575,67.92 C230.5575,59.5499582 233.347472,52.7100266 238.9275,47.4 C244.507528,42.0899735 250.537468,39.0750036 257.0175,38.355 L257.0175,39.435 C253.687483,39.7950018 250.762513,41.774982 248.2425,45.375 C244.912483,50.2350243 243.2475,57.6599501 243.2475,67.65 Z M278.6175,67.65 C278.6175,53.6999303 274.972536,44.7900194 267.6825,40.92 C265.972491,40.0199955 263.992511,39.4800009 261.7425,39.3 L261.7425,38.22 C270.022541,38.4000009 277.019971,41.1449735 282.735,46.455 C288.450029,51.7650266 291.3075,58.7849564 291.3075,67.515 C291.3075,75.8850419 288.562527,82.6574741 283.0725,87.8325 C277.582473,93.0075259 271.507533,96.0449955 264.8475,96.945 L264.8475,95.865 C266.287507,95.6849991 267.817492,95.0100059 269.4375,93.84 C271.057508,92.6699942 272.452494,91.2300086 273.6225,89.52 C276.952517,84.6599757 278.6175,77.3700486 278.6175,67.65 Z M367.0425,79.26 L367.0425,27.69 C367.0425,22.1099721 366.210008,18.2400108 364.545,16.08 C362.879992,13.9199892 359.707523,12.5700027 355.0275,12.03 L355.0275,10.95 L392.2875,10.95 L392.2875,12.03 C387.607477,12.5700027 384.435008,13.9199892 382.77,16.08 C381.104992,18.2400108 380.2725,22.1099721 380.2725,27.69 L380.2725,79.26 C380.2725,84.8400279 381.104992,88.7099892 382.77,90.87 C384.435008,93.0300108 387.607477,94.3799973 392.2875,94.92 L392.2875,96 L355.0275,96 L355.0275,94.92 C359.707523,94.3799973 362.879992,93.0300108 364.545,90.87 C366.210008,88.7099892 367.0425,84.8400279 367.0425,79.26 Z M446.0175,38.22 L446.0175,82.5 C446.0175,86.9100221 446.624994,89.9699915 447.84,91.68 C449.055006,93.3900086 451.417482,94.4699978 454.9275,94.92 L454.9275,96 L425.6325,96 L425.6325,94.92 C429.322518,94.4699978 431.707495,93.4350081 432.7875,91.815 C433.867505,90.1949919 434.4075,87.090023 434.4075,82.5 L434.4075,55.77 C434.4075,52.6199843 433.192512,50.0550099 430.7625,48.075 C429.592494,47.0849951 428.422506,46.3200027 427.2525,45.78 L427.2525,44.97 L445.7475,38.085 L446.0175,38.22 Z M482.4675,55.095 L482.4675,82.5 C482.4675,87.1800234 482.962495,90.3074921 483.9525,91.8825 C484.942505,93.4575079 487.282482,94.4699978 490.9725,94.92 L490.9725,96 L461.9475,96 L461.9475,94.92 C465.457518,94.4699978 467.819994,93.3900086 469.035,91.68 C470.250006,89.9699915 470.8575,86.9100221 470.8575,82.5 L470.8575,57.525 C470.8575,53.4749798 470.137507,50.5050095 468.6975,48.615 C467.257493,46.7249906 464.51252,45.78 460.4625,45.78 C457.402485,45.78 453.937519,46.4999928 450.0675,47.94 L450.0675,47.67 C452.317511,44.9699865 455.152483,42.720009 458.5725,40.92 C461.992517,39.119991 465.277484,38.22 468.4275,38.22 C473.557526,38.22 477.179989,39.6599856 479.295,42.54 C481.410011,45.4200144 482.4675,49.6049726 482.4675,55.095 Z M507.3075,82.5 L507.3075,57.525 C507.3075,53.4749798 506.587507,50.5050095 505.1475,48.615 C503.707493,46.7249906 500.96252,45.78 496.9125,45.78 C493.852485,45.78 490.387519,46.4999928 486.5175,47.94 L486.5175,47.67 C488.767511,44.9699865 491.602483,42.720009 495.0225,40.92 C498.442517,39.119991 501.727484,38.22 504.8775,38.22 C510.007526,38.22 513.629989,39.6599856 515.745,42.54 C517.860011,45.4200144 518.9175,49.6049726 518.9175,55.095 L518.9175,82.5 C518.9175,87.090023 519.457495,90.1949919 520.5375,91.815 C521.617505,93.4350081 524.002482,94.4699978 527.6925,94.92 L527.6925,96 L498.3975,96 L498.3975,94.92 C501.907518,94.4699978 504.269994,93.3900086 505.485,91.68 C506.700006,89.9699915 507.3075,86.9100221 507.3075,82.5 Z M635.9625,36.6 L634.7475,36.6 C633.667495,30.5699699 631.372518,25.4625209 627.8625,21.2775 C624.352482,17.0924791 619.762528,14.1450086 614.0925,12.435 C612.02249,11.8049969 609.637513,11.3550014 606.9375,11.085 L606.9375,9.87 C618.99756,10.2300018 628.672464,11.8949852 635.9625,14.865 L635.9625,36.6 Z M635.1525,68.19 L636.3675,68.19 L636.3675,92.22 C629.707467,94.4700113 620.482559,96.0449955 608.6925,96.945 L608.6925,95.73 C610.76251,95.4599987 612.742491,95.0550027 614.6325,94.515 C620.032527,92.714991 624.509982,89.4750234 628.065,84.795 C631.620018,80.1149766 633.982494,74.580032 635.1525,68.19 Z M602.8875,95.865 L602.8875,97.08 C589.927435,96.7199982 579.330041,92.1975434 571.095,83.5125 C562.859959,74.8274566 558.7425,64.3200617 558.7425,51.99 C558.7425,46.7699739 559.664991,41.8875227 561.51,37.3425 C563.355009,32.7974773 565.739985,28.927516 568.665,25.7325 C571.590015,22.537484 574.942481,19.7700117 578.7225,17.43 C582.502519,15.0899883 586.282481,13.3125061 590.0625,12.0975 C593.842519,10.8824939 597.487482,10.1850009 600.9975,10.005 L600.9975,11.22 C597.487482,11.6700023 594.427513,12.5699933 591.8175,13.92 C579.487438,20.5800333 573.3225,33.2699064 573.3225,51.99 C573.3225,61.5300477 574.919984,69.9899631 578.115,77.37 C581.310016,84.7500369 586.192467,89.8799856 592.7625,92.76 C596.632519,94.560009 600.007486,95.5949987 602.8875,95.865 Z M693.4725,82.5 L693.4725,57.795 C693.4725,53.8349802 692.640008,50.8425101 690.975,48.8175 C689.309992,46.7924899 686.45252,45.78 682.4025,45.78 C678.892482,45.78 675.202519,46.4999928 671.3325,47.94 L671.3325,47.67 C673.582511,44.9699865 676.417483,42.720009 679.8375,40.92 C683.257517,39.119991 686.542484,38.22 689.6925,38.22 C694.912526,38.22 698.782487,39.7274849 701.3025,42.7425 C703.822513,45.7575151 705.0825,49.964973 705.0825,55.365 L705.0825,82.5 C705.0825,87.090023 705.622495,90.1949919 706.7025,91.815 C707.782505,93.4350081 710.167482,94.4699978 713.8575,94.92 L713.8575,96 L684.5625,96 L684.5625,94.92 C688.072518,94.4699978 690.434994,93.3900086 691.65,91.68 C692.865006,89.9699915 693.4725,86.9100221 693.4725,82.5 Z M667.2825,19.995 L667.2825,82.5 C667.2825,86.9100221 667.889994,89.9699915 669.105,91.68 C670.320006,93.3900086 672.682482,94.4699978 676.1925,94.92 L676.1925,96 L646.8975,96 L646.8975,94.92 C650.587518,94.4699978 652.972495,93.4350081 654.0525,91.815 C655.132505,90.1949919 655.6725,87.090023 655.6725,82.5 L655.6725,18.51 C655.6725,15.3599843 654.457512,12.7950099 652.0275,10.815 C650.857494,9.82499505 649.687506,9.0600027 648.5175,8.52 L648.5175,7.71 L667.4175,0.96 L667.6875,1.095 C667.417499,12.1650554 667.2825,18.4649924 667.2825,19.995 Z M756.5175,54.15 C754.717491,54.15 753.210006,53.5875056 751.995,52.4625 C750.779994,51.3374944 750.1725,49.875009 750.1725,48.075 C750.1725,46.0049897 750.622495,44.5200045 751.5225,43.62 C751.342499,43.4399991 750.982503,43.35 750.4425,43.35 C747.292484,43.35 744.592511,45.4649789 742.3425,49.695 L742.3425,49.155 C743.242504,46.1849852 744.884988,43.6200108 747.27,41.46 C749.655012,39.2999892 752.152487,38.22 754.7625,38.22 C760.612529,38.22 763.5375,41.0549717 763.5375,46.725 C763.5375,49.0650117 762.885007,50.8874935 761.58,52.1925 C760.274993,53.4975065 758.58751,54.15 756.5175,54.15 Z M738.8325,38.22 L738.8325,82.5 C738.8325,87.0000225 739.619992,90.0824917 741.195,91.7475 C742.770008,93.4125083 745.402482,94.4699978 749.0925,94.92 L749.0925,96 L718.4475,96 L718.4475,94.92 C722.137518,94.4699978 724.522495,93.4350081 725.6025,91.815 C726.682505,90.1949919 727.2225,87.090023 727.2225,82.5 L727.2225,55.77 C727.2225,52.6199843 726.007512,50.0550099 723.5775,48.075 C722.407494,47.0849951 721.237506,46.3200027 720.0675,45.78 L720.0675,44.97 L738.5625,38.085 L738.8325,38.22 Z M776.3625,82.5 L776.3625,56.445 C776.3625,53.0249829 775.147512,50.3250099 772.7175,48.345 C771.547494,47.2649946 770.197508,46.4100032 768.6675,45.78 L768.6675,44.97 L788.1075,38.085 L788.3775,38.22 C788.107499,49.2900554 787.9725,55.5899924 787.9725,57.12 L787.9725,82.5 C787.9725,86.8200216 788.624993,89.8574912 789.93,91.6125 C791.235007,93.3675088 793.687482,94.4699978 797.2875,94.92 L797.2875,96 L767.5875,96 L767.5875,94.92 C771.277518,94.4699978 773.662495,93.4350081 774.7425,91.815 C775.822505,90.1949919 776.3625,87.090023 776.3625,82.5 Z M820.6425,38.49 L820.6425,39.435 C819.202493,39.6150009 817.807507,40.5374917 816.4575,42.2025 C815.107493,43.8675083 814.4325,45.8249888 814.4325,48.075 C814.4325,48.7950036 814.499999,49.4924966 814.635,50.1675 C814.770001,50.8425034 814.904999,51.4274975 815.04,51.9225 C815.175001,52.4175025 815.444998,52.9349973 815.85,53.475 C816.255002,54.0150027 816.569999,54.4649982 816.795,54.825 C817.020001,55.1850018 817.492496,55.6124975 818.2125,56.1075 C818.932504,56.6025025 819.427499,56.9624989 819.6975,57.1875 C819.967501,57.4125011 820.574995,57.7724975 821.52,58.2675 C822.465005,58.7625025 823.094998,59.0999991 823.41,59.28 C823.725002,59.4600009 824.467494,59.8199973 825.6375,60.36 C826.807506,60.9000027 827.572498,61.2599991 827.9325,61.44 C833.332527,64.0500131 837.404986,66.5924876 840.15,69.0675 C842.895014,71.5425124 844.2675,74.8049798 844.2675,78.855 C844.2675,84.5250284 842.332519,88.9349843 838.4625,92.085 C834.592481,95.2350158 830.002527,96.8999991 824.6925,97.08 L824.6925,96.27 C827.752515,95.9099982 830.227491,94.7625097 832.1175,92.8275 C834.007509,90.8924903 834.9525,88.2600167 834.9525,84.93 C834.9525,83.9399951 834.840001,83.0175043 834.615,82.1625 C834.389999,81.3074957 833.962503,80.5200036 833.3325,79.8 C832.702497,79.0799964 832.185002,78.4725025 831.78,77.9775 C831.374998,77.4824975 830.565006,76.8750036 829.35,76.155 C828.134994,75.4349964 827.257503,74.9400014 826.7175,74.67 C826.177497,74.3999987 825.097508,73.8825038 823.4775,73.1175 C821.857492,72.3524962 820.777503,71.8350014 820.2375,71.565 C817.897488,70.3949942 816.097506,69.4500036 814.8375,68.73 C813.577494,68.0099964 812.070009,66.952507 810.315,65.5575 C808.559991,64.162493 807.277504,62.565009 806.4675,60.765 C805.657496,58.964991 805.2525,56.8950117 805.2525,54.555 C805.2525,50.2349784 806.669986,46.6125146 809.505,43.6875 C812.340014,40.7624854 816.052477,39.0300027 820.6425,38.49 Z M825.6375,39.165 L825.6375,38.22 C832.117532,38.22 837.022483,39.1649906 840.3525,41.055 L841.1625,55.635 L840.2175,55.635 C838.867493,51.224978 836.865013,47.4900153 834.21,44.43 C831.554987,41.3699847 828.697515,39.6150023 825.6375,39.165 Z M819.5625,96.27 L819.5625,97.08 C817.402489,96.9899996 814.747516,96.6300032 811.5975,96 C808.447484,95.3699969 806.152507,94.6950036 804.7125,93.975 L803.6325,76.83 L804.5775,76.83 C805.747506,81.3300225 807.682486,85.4474813 810.3825,89.1825 C813.082513,92.9175187 816.142483,95.2799951 819.5625,96.27 Z" id="Hello,-I’m-Chris." fill="#FFFFFF"></path>
                <path d="M301.5675,90.06 C301.5675,87.8999892 302.354992,86.1675065 303.93,84.8625 C305.505008,83.5574935 307.28249,82.905 309.2625,82.905 C315.922533,82.905 319.2525,86.7749613 319.2525,94.515 C319.2525,98.7450212 317.542517,102.81748 314.1225,106.7325 C310.702483,110.64752 306.607524,113.459991 301.8375,115.17 L301.4325,114.225 C304.582516,112.784993 307.14749,110.422516 309.1275,107.1375 C311.10751,103.852484 312.0525,100.23002 311.9625,96.27 C310.882495,96.8100027 309.532508,97.08 307.9125,97.08 C306.292492,97.08 304.830007,96.4050067 303.525,95.055 C302.219993,93.7049933 301.5675,92.0400099 301.5675,90.06 Z" id="Path" fill="#FFFFFF"></path>
                <path d="M400.7925,17.295 C400.7925,15.0449887 401.624992,13.2450067 403.29,11.895 C404.955008,10.5449933 406.732491,9.87 408.6225,9.87 C414.65253,9.87 417.6675,13.469964 417.6675,20.67 C417.6675,24.270018 416.025016,27.7799829 412.74,31.2 C409.454984,34.6200171 405.472523,36.9599937 400.7925,38.22 L400.3875,37.275 C408.577541,33.674982 412.402503,28.8600302 411.8625,22.83 C410.602494,23.640004 409.027509,24.045 407.1375,24.045 C405.517492,24.045 404.055007,23.4150063 402.75,22.155 C401.444993,20.8949937 400.7925,19.2750099 400.7925,17.295 Z" id="Path" fill="#FFFFFF"></path>
                <path d="M774.6075,16.755 C774.6075,14.7749901 775.327493,13.0425074 776.7675,11.5575 C778.207507,10.0724926 779.91749,9.33 781.8975,9.33 C783.87751,9.33 785.587493,10.0724926 787.0275,11.5575 C788.467507,13.0425074 789.1875,14.7749901 789.1875,16.755 C789.1875,18.7350099 788.467507,20.4449928 787.0275,21.885 C785.587493,23.3250072 783.87751,24.045 781.8975,24.045 C779.91749,24.045 778.207507,23.3250072 776.7675,21.885 C775.327493,20.4449928 774.6075,18.7350099 774.6075,16.755 Z" id="Path" fill="#FFFFFF"></path>
                <path d="M855.7425,89.925 C855.7425,87.9449901 856.439993,86.2800067 857.835,84.93 C859.230007,83.5799933 860.91749,82.905 862.8975,82.905 C864.87751,82.905 866.542493,83.5799933 867.8925,84.93 C869.242507,86.2800067 869.9175,87.9449901 869.9175,89.925 C869.9175,91.9050099 869.242507,93.592493 867.8925,94.9875 C866.542493,96.382507 864.87751,97.08 862.8975,97.08 C860.91749,97.08 859.230007,96.382507 857.835,94.9875 C856.439993,93.592493 855.7425,91.9050099 855.7425,89.925 Z" id="Path" fill="#17C37B"></path>
            </g>
        </g>
    </g>
</svg>