<?xml version="1.0" encoding="UTF-8"?>
<svg width="667px" height="57px" viewBox="0 0 667 57" version="1.1" xmlns="http://www.w3.org/2000/svg" xmlns:xlink="http://www.w3.org/1999/xlink">
    <!-- Generator: Sketch 42 (36781) - http://www.bohemiancoding.com/sketch -->
    <title>line-dots</title>
    <desc>Created with Sketch.</desc>
    <defs></defs>
    <g id="Ideas-08---approved" stroke="none" stroke-width="1" fill="none" fill-rule="evenodd">
        <g id="Template---Home-Copy-3" transform="translate(-75.000000, -892.000000)" fill="#17C37B">
            <g id="line-dots" transform="translate(75.000000, 892.000000)">
                <path d="M31.6431818,56.8431818 C22.3840446,56.8431818 14.7954841,54.2182081 8.87727273,48.9681818 C2.95906132,43.7181556 0,36.845497 0,28.35 C0,19.854503 2.95906132,13.0295712 8.87727273,7.875 C14.7954841,2.72042877 22.3363178,0.0954550227 31.5,0 C40.8545922,0 48.4431527,2.57724695 54.2659091,7.73181818 C60.0886655,12.7909344 63,19.6158661 63,28.2068182 C63,36.7977702 60.1363923,43.7181556 54.4090909,48.9681818 C48.4908795,54.2182081 40.902319,56.8431818 31.6431818,56.8431818 Z" id="Design,-etc."></path>
                <path d="M117.643182,56.8431818 C108.384045,56.8431818 100.795484,54.2182081 94.8772727,48.9681818 C88.9590613,43.7181556 86,36.845497 86,28.35 C86,19.854503 88.9590613,13.0295712 94.8772727,7.875 C100.795484,2.72042877 108.336318,0.0954550227 117.5,0 C126.854592,0 134.443153,2.57724695 140.265909,7.73181818 C146.088665,12.7909344 149,19.6158661 149,28.2068182 C149,36.7977702 146.136392,43.7181556 140.409091,48.9681818 C134.490879,54.2182081 126.902319,56.8431818 117.643182,56.8431818 Z" id="Design,-etc.-Copy"></path>
                <path d="M204.643182,56.8431818 C195.384045,56.8431818 187.795484,54.2182081 181.877273,48.9681818 C175.959061,43.7181556 173,36.845497 173,28.35 C173,19.854503 175.959061,13.0295712 181.877273,7.875 C187.795484,2.72042877 195.336318,0.0954550227 204.5,0 C213.854592,0 221.443153,2.57724695 227.265909,7.73181818 C233.088665,12.7909344 236,19.6158661 236,28.2068182 C236,36.7977702 233.136392,43.7181556 227.409091,48.9681818 C221.490879,54.2182081 213.902319,56.8431818 204.643182,56.8431818 Z" id="Design,-etc."></path>
                <path d="M290.643182,56.8431818 C281.384045,56.8431818 273.795484,54.2182081 267.877273,48.9681818 C261.959061,43.7181556 259,36.845497 259,28.35 C259,19.854503 261.959061,13.0295712 267.877273,7.875 C273.795484,2.72042877 281.336318,0.0954550227 290.5,0 C299.854592,0 307.443153,2.57724695 313.265909,7.73181818 C319.088665,12.7909344 322,19.6158661 322,28.2068182 C322,36.7977702 319.136392,43.7181556 313.409091,48.9681818 C307.490879,54.2182081 299.902319,56.8431818 290.643182,56.8431818 Z" id="Design,-etc.-Copy"></path>
                <path d="M376.643182,56.8431818 C367.384045,56.8431818 359.795484,54.2182081 353.877273,48.9681818 C347.959061,43.7181556 345,36.845497 345,28.35 C345,19.854503 347.959061,13.0295712 353.877273,7.875 C359.795484,2.72042877 367.336318,0.0954550227 376.5,0 C385.854592,0 393.443153,2.57724695 399.265909,7.73181818 C405.088665,12.7909344 408,19.6158661 408,28.2068182 C408,36.7977702 405.136392,43.7181556 399.409091,48.9681818 C393.490879,54.2182081 385.902319,56.8431818 376.643182,56.8431818 Z" id="Design,-etc."></path>
                <path d="M462.643182,56.8431818 C453.384045,56.8431818 445.795484,54.2182081 439.877273,48.9681818 C433.959061,43.7181556 431,36.845497 431,28.35 C431,19.854503 433.959061,13.0295712 439.877273,7.875 C445.795484,2.72042877 453.336318,0.0954550227 462.5,0 C471.854592,0 479.443153,2.57724695 485.265909,7.73181818 C491.088665,12.7909344 494,19.6158661 494,28.2068182 C494,36.7977702 491.136392,43.7181556 485.409091,48.9681818 C479.490879,54.2182081 471.902319,56.8431818 462.643182,56.8431818 Z" id="Design,-etc.-Copy"></path>
                <path d="M549.643182,56.8431818 C540.384045,56.8431818 532.795484,54.2182081 526.877273,48.9681818 C520.959061,43.7181556 518,36.845497 518,28.35 C518,19.854503 520.959061,13.0295712 526.877273,7.875 C532.795484,2.72042877 540.336318,0.0954550227 549.5,0 C558.854592,0 566.443153,2.57724695 572.265909,7.73181818 C578.088665,12.7909344 581,19.6158661 581,28.2068182 C581,36.7977702 578.136392,43.7181556 572.409091,48.9681818 C566.490879,54.2182081 558.902319,56.8431818 549.643182,56.8431818 Z" id="Design,-etc."></path>
                <path d="M635.643182,56.8431818 C626.384045,56.8431818 618.795484,54.2182081 612.877273,48.9681818 C606.959061,43.7181556 604,36.845497 604,28.35 C604,19.854503 606.959061,13.0295712 612.877273,7.875 C618.795484,2.72042877 626.336318,0.0954550227 635.5,0 C644.854592,0 652.443153,2.57724695 658.265909,7.73181818 C664.088665,12.7909344 667,19.6158661 667,28.2068182 C667,36.7977702 664.136392,43.7181556 658.409091,48.9681818 C652.490879,54.2182081 644.902319,56.8431818 635.643182,56.8431818 Z" id="Design,-etc.-Copy"></path>
            </g>
        </g>
    </g>
</svg>