<?xml version="1.0" encoding="UTF-8"?>
<svg width="397px" height="55px" viewBox="0 0 397 55" version="1.1" xmlns="http://www.w3.org/2000/svg" xmlns:xlink="http://www.w3.org/1999/xlink">
    <!-- Generator: Sketch 42 (36781) - http://www.bohemiancoding.com/sketch -->
    <title>Group</title>
    <desc>Created with Sketch.</desc>
    <defs>
        <rect id="path-1" x="0" y="0" width="397" height="55"></rect>
    </defs>
    <g id="Ideas-08---approved" stroke="none" stroke-width="1" fill="none" fill-rule="evenodd">
        <g id="Template---Home-Copy-2" transform="translate(-11.000000, -597.000000)">
            <g id="Group" transform="translate(209.500000, 624.500000) scale(-1, 1) translate(-209.500000, -624.500000) translate(11.000000, 597.000000)">
                <mask id="mask-2" fill="white">
                    <use xlink:href="#path-1"></use>
                </mask>
                <g id="Rectangle-4"></g>
                <path d="M-1053,-576.78 C-1053,-576.78 -684.39686,-486.104876 -250.223633,-131.240625 C183.949595,223.623626 492,686 492,686" id="Line" stroke="#17C37B" stroke-width="6" stroke-linecap="square" mask="url(#mask-2)"></path>
                <path d="M-1013,-576.78 C-1013,-576.78 -644.39686,-486.104876 -210.223633,-131.240625 C223.949595,223.623626 532,686 532,686" id="Line" stroke="#17C37B" stroke-width="6" stroke-linecap="square" mask="url(#mask-2)"></path>
                <path d="M-973,-576.78 C-973,-576.78 -604.39686,-486.104876 -170.223633,-131.240625 C263.949595,223.623626 572,686 572,686" id="Line" stroke="#17C37B" stroke-width="6" stroke-linecap="square" mask="url(#mask-2)"></path>
                <path d="M-933,-576.78 C-933,-576.78 -564.39686,-486.104876 -130.223633,-131.240625 C303.949595,223.623626 612,686 612,686" id="Line" stroke="#17C37B" stroke-width="6" stroke-linecap="square" mask="url(#mask-2)"></path>
                <path d="M-893,-576.78 C-893,-576.78 -524.39686,-486.104876 -90.2236328,-131.240625 C343.949595,223.623626 652,686 652,686" id="Line" stroke="#17C37B" stroke-width="6" stroke-linecap="square" mask="url(#mask-2)"></path>
                <path d="M-853,-576.78 C-853,-576.78 -484.39686,-486.104876 -50.2236328,-131.240625 C383.949595,223.623626 692,686 692,686" id="Line" stroke="#17C37B" stroke-width="6" stroke-linecap="square" mask="url(#mask-2)"></path>
                <path d="M-813,-576.78 C-813,-576.78 -444.39686,-486.104876 -10.2236328,-131.240625 C423.949595,223.623626 732,686 732,686" id="Line" stroke="#17C37B" stroke-width="6" stroke-linecap="square" mask="url(#mask-2)"></path>
                <path d="M-773,-576.78 C-773,-576.78 -404.39686,-486.104876 29.7763672,-131.240625 C463.949595,223.623626 772,686 772,686" id="Line" stroke="#17C37B" stroke-width="6" stroke-linecap="square" mask="url(#mask-2)"></path>
                <path d="M-733,-576.78 C-733,-576.78 -364.39686,-486.104876 69.7763672,-131.240625 C503.949595,223.623626 812,686 812,686" id="Line" stroke="#17C37B" stroke-width="6" stroke-linecap="square" mask="url(#mask-2)"></path>
                <path d="M-693,-576.78 C-693,-576.78 -324.39686,-486.104876 109.776367,-131.240625 C543.949595,223.623626 852,686 852,686" id="Line" stroke="#17C37B" stroke-width="6" stroke-linecap="square" mask="url(#mask-2)"></path>
                <path d="M-653,-576.78 C-653,-576.78 -284.39686,-486.104876 149.776367,-131.240625 C583.949595,223.623626 892,686 892,686" id="Line" stroke="#17C37B" stroke-width="6" stroke-linecap="square" mask="url(#mask-2)"></path>
                <path d="M-613,-576.78 C-613,-576.78 -244.39686,-486.104876 189.776367,-131.240625 C623.949595,223.623626 932,686 932,686" id="Line" stroke="#17C37B" stroke-width="6" stroke-linecap="square" mask="url(#mask-2)"></path>
                <path d="M-573,-576.78 C-573,-576.78 -204.39686,-486.104876 229.776367,-131.240625 C663.949595,223.623626 972,686 972,686" id="Line" stroke="#17C37B" stroke-width="6" stroke-linecap="square" mask="url(#mask-2)"></path>
                <path d="M-533,-576.78 C-533,-576.78 -164.39686,-486.104876 269.776367,-131.240625 C703.949595,223.623626 1012,686 1012,686" id="Line" stroke="#17C37B" stroke-width="6" stroke-linecap="square" mask="url(#mask-2)"></path>
                <path d="M-493,-576.78 C-493,-576.78 -124.39686,-486.104876 309.776367,-131.240625 C743.949595,223.623626 1052,686 1052,686" id="Line" stroke="#17C37B" stroke-width="6" stroke-linecap="square" mask="url(#mask-2)"></path>
                <path d="M-453,-576.78 C-453,-576.78 -84.3968602,-486.104876 349.776367,-131.240625 C783.949595,223.623626 1092,686 1092,686" id="Line" stroke="#17C37B" stroke-width="6" stroke-linecap="square" mask="url(#mask-2)"></path>
            </g>
        </g>
    </g>
</svg>