<?xml version="1.0" encoding="UTF-8"?>
<svg width="201px" height="15px" viewBox="0 0 201 15" version="1.1" xmlns="http://www.w3.org/2000/svg" xmlns:xlink="http://www.w3.org/1999/xlink">
    <!-- Generator: Sketch 42 (36781) - http://www.bohemiancoding.com/sketch -->
    <title>PLAIN LOGO</title>
    <desc>Created with Sketch.</desc>
    <defs></defs>
    <g id="Ideas-08---approved" stroke="none" stroke-width="1" fill="none" fill-rule="evenodd">
        <g id="Template---Home-Copy-4" transform="translate(-125.000000, -48.000000)">
            <g id="header" transform="translate(123.000000, 24.000000)">
                <g id="PLAIN-LOGO" transform="translate(2.000000, 24.000000)">
                    <polygon id="Path" fill="#17C37B" points="198.568393 14.565 198.302004 14.337 198.111726 14.147 197.959504 13.805 197.883393 13.52 197.883393 13.14 198.035615 12.684 198.263948 12.437 198.492282 12.266 198.796726 12.114 199.158254 12 199.633948 12.057 200.05256 12.266 200.376032 12.665 200.585337 13.121 200.623393 13.311 200.623393 13.52 200.56631 13.824 200.414087 14.128 200.128671 14.394 199.652976 14.641 199.082143 14.698"></polygon>
                    <g id="Group">
                        <path d="M4.92884977,14.5973154 L4.42176646,14.5771812 L4.03638315,14.5973154 L3.77269982,14.5973154 L3.44816651,14.557047 L2.59626655,14.5771812 L2.37314989,14.5973154 L1.92691658,14.5771812 L1.21699994,14.6174497 L0.770766631,14.557047 L0.567933307,14.5167785 L0.385383315,14.3959732 L0.162266659,14.0536913 L0.101416662,13.4697987 L0.0811333296,12.8255034 L0.121699994,12.1409396 L0.121699994,11.6778523 L0.0811333296,11.1342282 L0.0405666648,10.4496644 L0.0405666648,9.08053691 L0.0608499972,8.41610738 L0.0405666648,7.97315436 L0.0202833324,7.36912752 L0.0202833324,6.7852349 L0.0405666648,6.40268456 L0.0202833324,5.83892617 L0.0202833324,5.4966443 L0,4.85234899 L0.0202833324,4.36912752 L0.0202833324,4.10738255 L0.0405666648,3.72483221 L0.0405666648,3.20134228 L0.0811333296,2.77852349 L0.0811333296,1.93288591 L0.0608499972,1.48993289 L0.101416662,1.18791946 L0.223116656,0.805369128 L0.567933307,0.503355705 L1.01416662,0.402684564 L1.4401166,0.422818792 L1.72408325,0.44295302 L2.53541655,0.422818792 L3.04249986,0.422818792 L3.52929984,0.44295302 L3.77269982,0.422818792 L4.54346646,0.422818792 L4.78686644,0.463087248 L5.1316831,0.483221477 L5.7604664,0.463087248 L6.08499972,0.422818792 L7.42369966,0.422818792 L8.35673295,0.523489933 L8.88409959,0.66442953 L9.14778291,0.744966443 L10.0605329,1.18791946 L10.3039329,1.38926174 L10.5270495,1.61073826 L10.7298828,1.83221477 L10.9529995,2.2147651 L11.2369661,2.83892617 L11.4397995,3.46308725 L11.5006495,3.7852349 L11.5006495,4.5704698 L11.4803661,4.87248322 L11.3180995,5.47651007 L11.1152662,6.06040268 L10.8921495,6.40268456 L10.5878995,6.80536913 L10.4256328,7.10738255 L10.5067662,7.22818792 L10.8515828,7.44966443 L11.1355495,7.75167785 L11.4195161,8.19463087 L11.6426328,8.71812081 L11.8657494,9.32214765 L11.9671661,9.74496644 L12.0482994,10.1275168 L12.0685828,10.4899329 L12.0482994,11.033557 L11.8860328,11.6375839 L11.8048995,11.9798658 L11.6426328,12.3422819 L11.4397995,12.7852349 L11.1963995,13.0268456 L10.9935662,13.3489933 L10.5878995,13.6912752 L10.0402495,13.9932886 L9.61429955,14.1744966 L9.31004957,14.2550336 L8.78268293,14.4161074 L8.25531628,14.4966443 L7.99163296,14.557047 L7.68738298,14.5771812 L7.48454965,14.5973154 L7.139733,14.6375839 L6.77463302,14.6174497 L6.24726638,14.6375839 L5.71989973,14.6375839 L4.92884977,14.5973154 Z M6.28783304,12.3020134 L6.77463302,12.2818792 L7.30199966,12.2214765 L7.64681631,12.2214765 L8.03219963,12.1812081 L8.37701628,12.1610738 L8.7015496,12.0604027 L8.90438292,11.9395973 L9.16806624,11.6979866 L9.37089957,11.3758389 L9.45203289,11.2147651 L9.55344956,10.9932886 L9.59401622,10.6510067 L9.63458289,10.2483221 L9.59401622,9.9261745 L9.49259956,9.60402685 L9.31004957,9.22147651 L9.10721624,8.97986577 L8.94494958,8.83892617 L8.78268293,8.73825503 L8.68126626,8.67785235 L8.45814961,8.59731544 L7.84964964,8.4966443 L7.09916634,8.47651007 L6.55151636,8.45637584 L6.30811637,8.47651007 L5.39536642,8.47651007 L5.1316831,8.45637584 L4.82743311,8.47651007 L4.42176646,8.47651007 L2.92079986,8.4966443 L2.63683321,8.57718121 L2.55569988,8.77852349 L2.57598321,9.12080537 L2.61654988,9.42281879 L2.61654988,9.80536913 L2.57598321,10.409396 L2.53541655,11.1744966 L2.53541655,11.6174497 L2.61654988,12.1610738 L2.77881654,12.2416107 L2.8802332,12.2818792 L3.30618318,12.3020134 L4.05666648,12.3020134 L4.68544978,12.3221477 L5.17224976,12.3020134 L5.6996164,12.3422819 L6.28783304,12.3020134 Z M5.51706641,6.10067114 L6.3892497,6.12080537 L6.71378302,6.12080537 L7.11944967,6.08053691 L7.80908297,5.97986577 L8.17418295,5.83892617 L8.55956627,5.53691275 L8.76239959,5.27516779 L8.94494958,4.97315436 L9.00579958,4.55033557 L9.00579958,4.04697987 L8.90438292,3.72483221 L8.80296626,3.46308725 L8.62041627,3.22147651 L8.17418295,2.95973154 L7.68738298,2.77852349 L7.34256633,2.77852349 L7.09916634,2.75838926 L6.06471639,2.77852349 L5.27366642,2.75838926 L4.76658311,2.75838926 L4.3811998,2.71812081 L3.81326649,2.69798658 L3.16419985,2.73825503 L2.79909987,2.79865772 L2.63683321,2.8590604 L2.55569988,3.02013423 L2.55569988,3.34228188 L2.53541655,3.6442953 L2.45428322,4.04697987 L2.47456655,4.53020134 L2.47456655,5.03355705 L2.53541655,5.39597315 L2.53541655,5.67785235 L2.59626655,5.8590604 L2.67739988,5.97986577 L2.85994987,6.04026846 L3.02221653,6.06040268 L3.42788317,6.08053691 L3.87411649,6.08053691 L4.30006647,6.10067114 L4.92884977,6.12080537 L5.51706641,6.10067114 Z M26.2757343,14.5771812 L26.133751,14.557047 L25.951201,14.5771812 L25.4846843,14.5369128 L25.0790177,14.557047 L24.8153344,14.5369128 L24.247401,14.557047 L23.8214511,14.557047 L23.4360678,14.5369128 L23.1115344,14.5369128 L22.8275678,14.5771812 L22.5030345,14.557047 L22.4016178,14.5771812 L21.9553845,14.5369128 L21.3468845,14.5369128 L20.6775345,14.5167785 L19.9473346,14.5369128 L19.2982679,14.5369128 L18.9737346,14.5167785 L18.6492013,14.3355705 L18.4058013,13.9328859 L18.3652347,13.4496644 L18.3652347,12.0201342 L18.3449513,11.3959732 L18.3652347,10.9328859 L18.3652347,10.3087248 L18.3449513,9.9261745 L18.324668,9.5033557 L18.3043847,9.30201342 L18.3043847,9.02013423 L18.324668,8.71812081 L18.324668,8.23489933 L18.3043847,8.17449664 L18.324668,7.99328859 L18.3043847,7.75167785 L18.3043847,7.5704698 L18.2841013,7.08724832 L18.3043847,6.24161074 L18.324668,5.67785235 L18.324668,5.33557047 L18.3043847,4.75167785 L18.3043847,3.44295302 L18.263818,3.10067114 L18.2841013,2.83892617 L18.2841013,2.59731544 L18.3043847,2.2147651 L18.3043847,1.99328859 L18.324668,1.61073826 L18.3449513,1.06711409 L18.4260847,0.805369128 L18.568068,0.583892617 L18.7911846,0.44295302 L18.9534513,0.362416107 L19.176568,0.322147651 L19.7647846,0.322147651 L20.6166846,0.362416107 L21.9553845,0.362416107 L22.5233178,0.342281879 L22.9492678,0.322147651 L23.5780511,0.302013423 L24.8964677,0.302013423 L25.342701,0.362416107 L25.7889343,0.362416107 L26.1134676,0.322147651 L26.6814009,0.342281879 L27.0059343,0.362416107 L27.8172675,0.322147651 L28.0403842,0.342281879 L28.3446342,0.322147651 L28.6691675,0.362416107 L28.9734175,0.483221477 L29.1356842,0.724832215 L29.2573841,1.12751678 L29.2979508,1.55033557 L29.2776675,1.81208054 L29.1559675,2.17449664 L28.9328508,2.45637584 L28.7097342,2.53691275 L28.2432175,2.57718121 L27.5130176,2.59731544 L27.0870676,2.61744966 L26.9045176,2.59731544 L26.255451,2.63758389 L25.3021343,2.63758389 L24.5313677,2.61744966 L24.0648511,2.59731544 L23.8620177,2.59731544 L23.4563511,2.63758389 L22.3813345,2.65771812 L22.0162345,2.65771812 L21.5700012,2.67785235 L21.1846179,2.67785235 L20.8195179,2.77852349 L20.7586679,3.10067114 L20.7383845,3.44295302 L20.6978179,3.58389262 L20.6978179,3.9261745 L20.6775345,4.38926174 L20.7181012,4.89261745 L20.6978179,5.41610738 L20.7992345,5.87919463 L21.0426345,6.02013423 L21.2049012,6.02013423 L21.6511345,6.08053691 L22.1785011,6.04026846 L22.5233178,6.04026846 L22.9492678,6.08053691 L23.3955011,6.04026846 L24.9370344,6.02013423 L26.0526176,6.02013423 L26.3568676,6.04026846 L26.7016843,6.1409396 L26.9450843,6.38255034 L27.0262176,6.60402685 L27.0667843,6.80536913 L27.0870676,6.96644295 L27.1276342,7.4295302 L27.0667843,7.85234899 L26.9248009,8.09395973 L26.5191343,8.29530201 L25.4441177,8.29530201 L24.2676844,8.3557047 L23.6186177,8.33557047 L23.3955011,8.33557047 L22.5638845,8.31543624 L22.3204845,8.33557047 L21.9553845,8.31543624 L21.4685845,8.33557047 L21.2251845,8.37583893 L20.9615012,8.45637584 L20.8195179,8.57718121 L20.7992345,8.8590604 L20.7789512,9.16107383 L20.7383845,9.5033557 L20.7383845,9.94630872 L20.7586679,10.2483221 L20.7586679,10.6308725 L20.7383845,10.9530201 L20.7383845,11.4966443 L20.9209345,12.0201342 L21.4888678,12.261745 L22.9087011,12.261745 L23.4766344,12.2416107 L24.0445677,12.261745 L25.2007177,12.2416107 L25.6266677,12.2013423 L26.8436676,12.2013423 L27.0870676,12.2416107 L27.4724509,12.2416107 L28.1012342,12.261745 L28.6083175,12.3020134 L28.8720008,12.3020134 L29.0342675,12.3422819 L29.2168175,12.4630872 L29.3385175,12.6442953 L29.3993675,13.0067114 L29.3790841,13.4295302 L29.3790841,13.6711409 L29.3385175,13.8926174 L29.2573841,14.1342282 L29.1356842,14.295302 L28.9937008,14.3758389 L28.7908675,14.4362416 L27.7767009,14.5369128 L27.2493342,14.5973154 L26.6814009,14.5973154 L26.2757343,14.5771812 Z M45.6551356,14.7181208 L45.4523022,14.5973154 L45.2900356,14.4563758 L45.0669189,14.2147651 L44.8235189,13.8724832 L44.6612523,13.6711409 L44.4989856,13.4496644 L44.336719,13.2080537 L44.154169,12.9463087 L44.032469,12.7449664 L43.8702023,12.5436242 L43.6470857,12.2214765 L43.3225523,11.8590604 L43.0994357,11.5771812 L42.9168857,11.3154362 L42.6532024,10.9932886 L42.3489524,10.6308725 L42.1055524,10.2885906 L41.7810191,9.90604027 L41.5781858,9.62416107 L41.4564858,9.46308725 L41.3145024,9.36241611 L41.1116691,9.22147651 L40.9088358,9.12080537 L40.6857191,9.08053691 L40.4220358,9.04026846 L40.2394858,9.06040268 L38.9819192,9.02013423 L38.4951192,9.06040268 L38.0894526,9.20134228 L37.9880359,9.52348993 L37.9474693,10.0671141 L37.9069026,10.5302013 L37.8866193,10.7718121 L37.8663359,11.295302 L37.8663359,11.6979866 L37.8866193,12.261745 L37.8663359,12.4228188 L37.8663359,12.8053691 L37.8460526,13.147651 L37.8460526,13.5704698 L37.8054859,13.852349 L37.7649193,14.1744966 L37.6635026,14.3758389 L37.5620859,14.4966443 L37.4403859,14.557047 L37.2375526,14.6174497 L36.9941526,14.6174497 L36.6290526,14.6577181 L36.1828193,14.6174497 L35.9597027,14.5771812 L35.7568694,14.4966443 L35.5743194,14.1744966 L35.4729027,13.8926174 L35.4729027,13.409396 L35.4526194,12.9261745 L35.432336,12.7248322 L35.493186,11.9395973 L35.493186,11.4563758 L35.4729027,11.0536913 L35.432336,10.7315436 L35.432336,9.36241611 L35.4526194,8.97986577 L35.4729027,8.73825503 L35.4526194,8.57718121 L35.4526194,7.65100671 L35.4729027,7.26845638 L35.4729027,6.48322148 L35.4526194,6.06040268 L35.4526194,5.77852349 L35.493186,5.57718121 L35.4526194,5.33557047 L35.4526194,4.93288591 L35.432336,4.79194631 L35.4526194,4.67114094 L35.4729027,4.46979866 L35.4729027,4.10738255 L35.4526194,4.02684564 L35.493186,3.72483221 L35.493186,2.75838926 L35.4526194,2.55704698 L35.493186,2.3557047 L35.432336,1.97315436 L35.432336,1.61073826 L35.4526194,1.20805369 L35.5337527,0.865771812 L35.6554527,0.684563758 L35.7771527,0.583892617 L36.0002693,0.463087248 L36.588486,0.382550336 L37.4809526,0.422818792 L38.1908692,0.402684564 L38.6573859,0.382550336 L38.9819192,0.382550336 L39.2050359,0.402684564 L39.5498525,0.382550336 L40.0163692,0.362416107 L41.0508191,0.382550336 L41.3145024,0.382550336 L41.6998857,0.362416107 L42.632919,0.362416107 L43.0994357,0.382550336 L44.1947356,0.483221477 L44.4381356,0.543624161 L44.8032356,0.66442953 L45.2697522,0.865771812 L45.7768356,1.16778523 L46.0608022,1.44966443 L46.2230689,1.63087248 L46.5273189,1.95302013 L46.7098688,2.29530201 L46.8112855,2.61744966 L46.9532688,2.95973154 L47.0546855,3.24161074 L47.1358188,3.40268456 L47.1763855,3.58389262 L47.2169522,3.74496644 L47.1966688,3.98657718 L47.2169522,4.24832215 L47.2372355,4.73154362 L47.2575188,5.3557047 L47.2372355,5.65771812 L47.1966688,5.81879195 L47.1358188,6.04026846 L47.0546855,6.26174497 L46.9127022,6.66442953 L46.7098688,7.12751678 L46.5881689,7.30872483 L46.4664689,7.51006711 L46.2433522,7.75167785 L46.0405189,7.93288591 L45.8376856,8.15436242 L45.4928689,8.37583893 L45.2494689,8.4966443 L44.9046523,8.73825503 L44.4787023,8.91946309 L44.3570023,9.04026846 L44.3772856,9.1409396 L44.397569,9.22147651 L44.5192689,9.42281879 L44.7423856,9.7852349 L45.0263523,10.1275168 L45.2291856,10.3691275 L45.3306022,10.5503356 L45.4928689,10.7315436 L46.1013689,11.5973154 L46.3244855,11.8791946 L46.5678855,12.2013423 L46.7707188,12.442953 L46.9329855,12.704698 L47.1561022,12.9865772 L47.2980855,13.3489933 L47.2575188,13.4899329 L47.1763855,13.7516779 L46.9329855,14.1543624 L46.6490188,14.3355705 L46.3042022,14.5771812 L45.8579689,14.7583893 L45.6551356,14.7181208 Z M42.9168857,6.76510067 L43.0994357,6.74496644 L43.3225523,6.72483221 L43.484819,6.70469799 L43.6876523,6.72483221 L43.8702023,6.6442953 L44.0121856,6.58389262 L44.1947356,6.52348993 L44.3164356,6.42281879 L44.458419,6.28187919 L44.5801189,6.12080537 L44.7423856,5.69798658 L44.8235189,5.27516779 L44.8640856,5.09395973 L44.8843689,4.79194631 L44.9249356,4.55033557 L44.8843689,4.24832215 L44.7829523,3.88590604 L44.6815356,3.56375839 L44.4381356,3.18120805 L44.093319,2.95973154 L43.8093523,2.87919463 L43.423969,2.75838926 L43.0385857,2.73825503 L42.7343357,2.71812081 L42.5517857,2.69798658 L42.3692357,2.69798658 L42.1461191,2.67785235 L41.9027191,2.71812081 L40.5437358,2.71812081 L40.2597691,2.69798658 L39.9352358,2.69798658 L39.5701358,2.71812081 L39.2658859,2.65771812 L38.6371026,2.65771812 L38.1503026,2.71812081 L38.0286026,2.75838926 L37.9677526,2.89932886 L37.9474693,3.16107383 L37.9271859,3.68456376 L37.9271859,4.32885906 L37.9069026,4.79194631 L37.9271859,5.43624161 L37.9069026,6.04026846 L37.9677526,6.40268456 L38.2720026,6.58389262 L38.5356859,6.6442953 L38.7993692,6.66442953 L39.1644692,6.62416107 L39.3875859,6.66442953 L39.8338192,6.68456376 L40.2597691,6.68456376 L40.3814691,6.70469799 L40.8277025,6.68456376 L41.3753524,6.68456376 L42.2272524,6.76510067 L42.9168857,6.76510067 Z M64.0406535,14.7181208 L63.8378202,14.5973154 L63.6755536,14.4563758 L63.4524369,14.2147651 L63.2090369,13.8724832 L63.0467703,13.6711409 L62.8845036,13.4496644 L62.7222369,13.2080537 L62.539687,12.9463087 L62.417987,12.7449664 L62.2557203,12.5436242 L62.0326036,12.2214765 L61.7080703,11.8590604 L61.4849537,11.5771812 L61.3024037,11.3154362 L61.0387204,10.9932886 L60.7344704,10.6308725 L60.4910704,10.2885906 L60.1665371,9.90604027 L59.9637037,9.62416107 L59.8420037,9.46308725 L59.7000204,9.36241611 L59.4971871,9.22147651 L59.2943538,9.12080537 L59.0712371,9.08053691 L58.8075538,9.04026846 L58.6250038,9.06040268 L57.3674372,9.02013423 L56.8806372,9.06040268 L56.4749706,9.20134228 L56.3735539,9.52348993 L56.3329872,10.0671141 L56.2924206,10.5302013 L56.2721372,10.7718121 L56.2518539,11.295302 L56.2518539,11.6979866 L56.2721372,12.261745 L56.2518539,12.4228188 L56.2518539,12.8053691 L56.2315706,13.147651 L56.2315706,13.5704698 L56.1910039,13.852349 L56.1504372,14.1744966 L56.0490206,14.3758389 L55.9476039,14.4966443 L55.8259039,14.557047 L55.6230706,14.6174497 L55.3796706,14.6174497 L55.0145706,14.6577181 L54.5683373,14.6174497 L54.3452207,14.5771812 L54.1423873,14.4966443 L53.9598374,14.1744966 L53.8584207,13.8926174 L53.8584207,13.409396 L53.8381374,12.9261745 L53.817854,12.7248322 L53.878704,11.9395973 L53.878704,11.4563758 L53.8584207,11.0536913 L53.817854,10.7315436 L53.817854,9.36241611 L53.8381374,8.97986577 L53.8584207,8.73825503 L53.8381374,8.57718121 L53.8381374,7.65100671 L53.8584207,7.26845638 L53.8584207,6.48322148 L53.8381374,6.06040268 L53.8381374,5.77852349 L53.878704,5.57718121 L53.8381374,5.33557047 L53.8381374,4.93288591 L53.817854,4.79194631 L53.8381374,4.67114094 L53.8584207,4.46979866 L53.8584207,4.10738255 L53.8381374,4.02684564 L53.878704,3.72483221 L53.878704,2.75838926 L53.8381374,2.55704698 L53.878704,2.3557047 L53.817854,1.97315436 L53.817854,1.61073826 L53.8381374,1.20805369 L53.9192707,0.865771812 L54.0409707,0.684563758 L54.1626707,0.583892617 L54.3857873,0.463087248 L54.974004,0.382550336 L55.8664706,0.422818792 L56.5763872,0.402684564 L57.0429039,0.382550336 L57.3674372,0.382550336 L57.5905538,0.402684564 L57.9353705,0.382550336 L58.4018871,0.362416107 L59.4363371,0.382550336 L59.7000204,0.382550336 L60.0854037,0.362416107 L61.018437,0.362416107 L61.4849537,0.382550336 L62.5802536,0.483221477 L62.8236536,0.543624161 L63.1887536,0.66442953 L63.6552702,0.865771812 L64.1623535,1.16778523 L64.4463202,1.44966443 L64.6085869,1.63087248 L64.9128368,1.95302013 L65.0953868,2.29530201 L65.1968035,2.61744966 L65.3387868,2.95973154 L65.4402035,3.24161074 L65.5213368,3.40268456 L65.5619035,3.58389262 L65.6024701,3.74496644 L65.5821868,3.98657718 L65.6024701,4.24832215 L65.6227535,4.73154362 L65.6430368,5.3557047 L65.6227535,5.65771812 L65.5821868,5.81879195 L65.5213368,6.04026846 L65.4402035,6.26174497 L65.2982202,6.66442953 L65.0953868,7.12751678 L64.9736868,7.30872483 L64.8519868,7.51006711 L64.6288702,7.75167785 L64.4260369,7.93288591 L64.2232035,8.15436242 L63.8783869,8.37583893 L63.6349869,8.4966443 L63.2901703,8.73825503 L62.8642203,8.91946309 L62.7425203,9.04026846 L62.7628036,9.1409396 L62.7830869,9.22147651 L62.9047869,9.42281879 L63.1279036,9.7852349 L63.4118702,10.1275168 L63.6147036,10.3691275 L63.7161202,10.5503356 L63.8783869,10.7315436 L64.4868869,11.5973154 L64.7100035,11.8791946 L64.9534035,12.2013423 L65.1562368,12.442953 L65.3185035,12.704698 L65.5416201,12.9865772 L65.6836035,13.3489933 L65.6430368,13.4899329 L65.5619035,13.7516779 L65.3185035,14.1543624 L65.0345368,14.3355705 L64.6897202,14.5771812 L64.2434869,14.7583893 L64.0406535,14.7181208 Z M61.3024037,6.76510067 L61.4849537,6.74496644 L61.7080703,6.72483221 L61.870337,6.70469799 L62.0731703,6.72483221 L62.2557203,6.6442953 L62.3977036,6.58389262 L62.5802536,6.52348993 L62.7019536,6.42281879 L62.8439369,6.28187919 L62.9656369,6.12080537 L63.1279036,5.69798658 L63.2090369,5.27516779 L63.2496036,5.09395973 L63.2698869,4.79194631 L63.3104536,4.55033557 L63.2698869,4.24832215 L63.1684703,3.88590604 L63.0670536,3.56375839 L62.8236536,3.18120805 L62.478837,2.95973154 L62.1948703,2.87919463 L61.809487,2.75838926 L61.4241037,2.73825503 L61.1198537,2.71812081 L60.9373037,2.69798658 L60.7547537,2.69798658 L60.531637,2.67785235 L60.2882371,2.71812081 L58.9292538,2.71812081 L58.6452871,2.69798658 L58.3207538,2.69798658 L57.9556538,2.71812081 L57.6514038,2.65771812 L57.0226205,2.65771812 L56.5358206,2.71812081 L56.4141206,2.75838926 L56.3532706,2.89932886 L56.3329872,3.16107383 L56.3127039,3.68456376 L56.3127039,4.32885906 L56.2924206,4.79194631 L56.3127039,5.43624161 L56.2924206,6.04026846 L56.3532706,6.40268456 L56.6575206,6.58389262 L56.9212039,6.6442953 L57.1848872,6.66442953 L57.5499872,6.62416107 L57.7731038,6.66442953 L58.2193372,6.68456376 L58.6452871,6.68456376 L58.7669871,6.70469799 L59.2132204,6.68456376 L59.7608704,6.68456376 L60.6127704,6.76510067 L61.3024037,6.76510067 Z M73.055272,14.5167785 L72.6698887,14.4161074 L72.385922,14.1342282 L72.3047887,13.852349 L72.325072,13.3892617 L72.325072,12.5838926 L72.3453553,12.1006711 L72.3047887,11.7785235 L72.325072,11.3154362 L72.2845053,10.8120805 L72.3047887,10.5503356 L72.325072,10.3288591 L72.264222,9.98657718 L72.264222,9.36241611 L72.3047887,8.87919463 L72.264222,8.47651007 L72.325072,8.11409396 L72.3047887,7.87248322 L72.3047887,7.51006711 L72.2439387,7.14765101 L72.264222,6.90604027 L72.264222,6.58389262 L72.203372,6.02013423 L72.1830887,5.67785235 L72.2439387,5.0738255 L72.2439387,4.48993289 L72.264222,3.94630872 L72.2439387,3.54362416 L72.2439387,1.61073826 L72.2236553,1.20805369 L72.3047887,0.88590604 L72.4062053,0.704697987 L72.5279053,0.583892617 L72.7915887,0.402684564 L73.176972,0.362416107 L73.5420719,0.362416107 L73.9680219,0.382550336 L74.2925552,0.483221477 L74.4548219,0.66442953 L74.6170886,0.926174497 L74.6373719,1.2885906 L74.6576552,1.79194631 L74.6576552,2.13422819 L74.6373719,2.3557047 L74.6779386,2.69798658 L74.6576552,3.20134228 L74.6576552,3.68456376 L74.6982219,4.02684564 L74.6779386,4.53020134 L74.6576552,5.15436242 L74.6576552,5.55704698 L74.6779386,5.83892617 L74.6779386,6.34228188 L74.6982219,6.7852349 L74.6779386,7.32885906 L74.6982219,8.27516779 L74.6576552,8.83892617 L74.6576552,9.10067114 L74.6779386,9.28187919 L74.6779386,10.409396 L74.6982219,10.7315436 L74.6982219,11.7785235 L74.7387886,12 L74.7387886,12.9463087 L74.7185052,13.409396 L74.6170886,13.9731544 L74.5156719,14.1946309 L74.4142552,14.3154362 L74.2722719,14.3758389 L73.9071719,14.5167785 L73.481222,14.5167785 L73.3189553,14.5369128 L73.055272,14.5167785 Z M83.388307,14.5973154 L82.8609404,14.557047 L82.3944237,14.4563758 L82.1713071,14.3154362 L82.0698904,14.1946309 L81.9887571,13.9328859 L81.9279071,13.5704698 L81.9279071,12.9261745 L81.9481904,12.6845638 L81.9481904,12.4630872 L81.9684737,12.2214765 L81.9481904,11.7785235 L81.9887571,11.295302 L81.9481904,10.6711409 L81.9279071,10.1073826 L81.9076237,9.62416107 L81.9076237,6.98657718 L81.9279071,6.36241611 L81.9076237,5.83892617 L81.8873404,5.45637584 L81.8670571,5.03355705 L81.8873404,4.51006711 L81.8670571,3.9261745 L81.8873404,3.48322148 L81.8873404,2.81879195 L81.9279071,2.2147651 L81.8670571,1.65100671 L81.8670571,1.22818792 L81.9481904,0.88590604 L82.1307404,0.624161074 L82.3132904,0.483221477 L82.6783904,0.463087248 L83.266607,0.44295302 L83.631707,0.463087248 L83.8548236,0.44295302 L84.361907,0.463087248 L86.9378902,0.463087248 L87.2421402,0.422818792 L87.5261068,0.422818792 L87.7492235,0.402684564 L88.2765901,0.382550336 L88.8039567,0.422818792 L89.0879234,0.402684564 L89.2096234,0.44295302 L89.3921734,0.463087248 L89.67614,0.483221477 L90.34549,0.583892617 L90.64974,0.644295302 L91.07569,0.805369128 L91.4813566,0.966442953 L91.7247566,1.12751678 L92.0695733,1.34899329 L92.3535399,1.55033557 L92.6375066,1.77181208 L93.0837399,2.23489933 L93.4488399,2.63758389 L93.6516732,2.97986577 L93.9559232,3.46308725 L94.1384732,3.84563758 L94.2804565,4.10738255 L94.4021565,4.40939597 L94.5441398,4.81208054 L94.6455565,5.23489933 L94.6861231,5.39597315 L94.7469731,5.8590604 L94.8078231,6.48322148 L94.8483898,6.7852349 L94.9092398,7.00671141 L94.9295231,7.40939597 L94.9092398,7.93288591 L94.8889565,8.41610738 L94.8078231,8.95973154 L94.7064065,9.54362416 L94.5644231,10.0268456 L94.3818732,10.6912752 L94.2196065,11.0536913 L94.0370565,11.4563758 L93.9153565,11.6577181 L93.7733732,11.9395973 L93.4488399,12.3825503 L93.1040232,12.7852349 L92.7997732,13.1073826 L92.5158066,13.3489933 L92.2115566,13.5704698 L91.7653233,13.8120805 L91.2988066,14.033557 L91.1162566,14.114094 L90.8525733,14.2147651 L90.58889,14.295302 L89.79784,14.4966443 L88.8242401,14.5369128 L88.1954568,14.5369128 L87.5463901,14.557047 L87.0190235,14.5369128 L85.9440069,14.5973154 L85.2746569,14.6174497 L84.7067236,14.5973154 L84.3213403,14.6174497 L83.388307,14.5973154 Z M88.3982901,12.3221477 L88.9053734,12.2416107 L89.3921734,12.1409396 L89.7775567,12.0805369 L90.28464,11.8791946 L90.6903067,11.6577181 L91.2379566,11.2751678 L91.6436233,10.8322148 L92.0087233,10.3288591 L92.2318399,9.7852349 L92.3738232,9.24161074 L92.4752399,8.75838926 L92.4955232,8.39597315 L92.4955232,7.06711409 L92.4549566,6.48322148 L92.3941066,6.04026846 L92.3129733,5.65771812 L92.1709899,5.17449664 L92.0290066,4.77181208 L91.8667399,4.48993289 L91.6841899,4.20805369 L91.31909,3.76510067 L90.7308733,3.28187919 L90.2643567,3.02013423 L89.98039,2.89932886 L89.2299067,2.69798658 L88.9459401,2.67785235 L88.4388568,2.65771812 L86.8567568,2.65771812 L86.0657069,2.63758389 L85.4572069,2.65771812 L85.1935236,2.71812081 L84.8284236,2.75838926 L84.5038903,2.83892617 L84.361907,2.97986577 L84.3213403,3.20134228 L84.301057,3.5033557 L84.3213403,3.88590604 L84.3213403,4.16778523 L84.301057,4.53020134 L84.2807736,5.0738255 L84.2807736,6.36241611 L84.301057,6.86577181 L84.301057,8.2147651 L84.2807736,8.77852349 L84.2807736,10.1677852 L84.3213403,10.5704698 L84.3416236,11.0939597 L84.361907,11.4362416 L84.361907,11.9395973 L84.422757,12.2013423 L84.7270069,12.2818792 L85.0109736,12.2416107 L85.3557902,12.261745 L85.7614569,12.3020134 L86.3293902,12.3020134 L86.9784568,12.3221477 L88.3982901,12.3221477 Z M106.885225,14.9395973 L106.520125,14.8993289 L106.134741,14.7785235 L105.708791,14.6979866 L105.505958,14.6375839 L105.181425,14.5369128 L104.613492,14.3758389 L104.228108,14.2147651 L103.497908,13.8120805 L103.092242,13.4899329 L102.808275,13.3087248 L102.585158,13.1073826 L102.199775,12.7852349 L101.854958,12.4228188 L101.611558,12.0805369 L101.287025,11.6778523 L100.982775,11.2147651 L100.739375,10.6711409 L100.577108,10.2281879 L100.455408,9.98657718 L100.374275,9.72483221 L100.272858,9.32214765 L100.212008,9 L100.171442,8.77852349 L100.110592,8.43624161 L100.070025,8.05369128 L100.029458,7.87248322 L100.049742,7.63087248 L100.009175,7.20805369 L100.049742,6.88590604 L100.049742,6.72483221 L100.070025,6.38255034 L100.151158,6.06040268 L100.191725,5.75838926 L100.272858,5.47651007 L100.313425,5.25503356 L100.394558,4.99328859 L100.495975,4.81208054 L100.556825,4.63087248 L100.597392,4.48993289 L100.759658,4.18791946 L100.942208,3.86577181 L101.063908,3.68456376 L101.266742,3.30201342 L101.591275,2.91946309 L101.875242,2.51677852 L102.341758,2.0738255 L102.808275,1.69127517 L103.011108,1.51006711 L103.335642,1.30872483 L103.741308,1.04697987 L103.964425,0.926174497 L104.207825,0.765100671 L104.430942,0.644295302 L104.654058,0.563758389 L104.998875,0.463087248 L105.505958,0.302013423 L105.992758,0.140939597 L106.418708,0.0805369128 L106.682391,0.0201342282 L107.148908,0.0201342282 L107.554575,0 L108.021091,0.0604026846 L108.528175,0.100671141 L108.670158,0.140939597 L108.974408,0.181208054 L109.380075,0.281879195 L109.684325,0.342281879 L109.887158,0.402684564 L110.394241,0.583892617 L110.698491,0.744966443 L110.921608,0.845637584 L111.104158,0.966442953 L111.712658,1.24832215 L112.098041,1.55033557 L112.422574,1.77181208 L112.645691,1.97315436 L112.787674,2.09395973 L113.031074,2.39597315 L113.335324,2.77852349 L113.477308,3.06040268 L113.538158,3.36241611 L113.416458,3.76510067 L113.213624,4.06711409 L112.929658,4.2885906 L112.503708,4.51006711 L112.057475,4.53020134 L111.773508,4.4295302 L111.469258,4.16778523 L111.063591,3.7852349 L110.597075,3.40268456 L110.089991,3.08053691 L109.623475,2.81879195 L109.258375,2.67785235 L108.933841,2.57718121 L107.797975,2.37583893 L107.412591,2.33557047 L107.311175,2.3557047 L106.864941,2.39597315 L106.175308,2.51677852 L105.729075,2.61744966 L105.424825,2.75838926 L104.978592,2.97986577 L104.552642,3.24161074 L104.309242,3.44295302 L104.126692,3.62416107 L103.964425,3.76510067 L103.396492,4.40939597 L103.295075,4.59060403 L103.153092,4.79194631 L102.929975,5.27516779 L102.767708,5.67785235 L102.666292,6 L102.524308,6.44295302 L102.443175,7.02684564 L102.443175,7.7114094 L102.504025,8.05369128 L102.544592,8.53691275 L102.585158,8.87919463 L102.666292,9.20134228 L102.787992,9.48322148 L102.909692,9.72483221 L103.051675,9.9261745 L103.173375,10.147651 L103.355925,10.3288591 L103.497908,10.5100671 L103.680458,10.7919463 L103.842725,10.9932886 L104.146975,11.2550336 L104.735192,11.738255 L105.404541,12.1208054 L105.972475,12.3422819 L106.520125,12.4832215 L106.885225,12.5637584 L107.351741,12.6040268 L108.142791,12.5436242 L108.548458,12.4832215 L109.075825,12.3422819 L109.461208,12.2214765 L110.150841,11.8993289 L110.576791,11.6174497 L110.881041,11.3355705 L111.266425,10.9127517 L111.448975,10.6510067 L111.651808,10.3489933 L111.854641,9.98657718 L112.057475,9.58389262 L112.138608,9.26174497 L112.179175,9 L112.158891,8.79865772 L111.895208,8.63758389 L111.063591,8.63758389 L110.495658,8.65771812 L110.292825,8.61744966 L109.542341,8.61744966 L108.933841,8.63758389 L108.690441,8.65771812 L108.406475,8.67785235 L108.223925,8.63758389 L107.919675,8.63758389 L107.493725,8.59731544 L107.169191,8.47651007 L107.006925,8.23489933 L106.925791,7.91275168 L106.864941,7.36912752 L106.864941,6.96644295 L106.946075,6.74496644 L107.108341,6.5033557 L107.311175,6.38255034 L107.514008,6.32214765 L108.345625,6.32214765 L109.116391,6.26174497 L109.724891,6.26174497 L109.988575,6.24161074 L110.434808,6.24161074 L111.874925,6.26174497 L112.260308,6.26174497 L113.071641,6.30201342 L113.781558,6.36241611 L113.984391,6.42281879 L114.207508,6.54362416 L114.511758,6.86577181 L114.714591,7.48993289 L114.714591,8.33557047 L114.633458,9.06040268 L114.552324,9.44295302 L114.491474,9.62416107 L114.450908,9.90604027 L114.268358,10.3691275 L114.126374,10.8120805 L114.004674,11.0134228 L113.882974,11.295302 L113.700424,11.6174497 L113.578724,11.8187919 L113.416458,12.0805369 L113.173058,12.3825503 L112.970224,12.5838926 L112.645691,12.966443 L112.219741,13.3691275 L112.016908,13.5302013 L111.793791,13.6912752 L111.590958,13.7919463 L111.469258,13.8926174 L111.083875,14.1342282 L110.921608,14.1946309 L110.515941,14.3959732 L110.110275,14.5369128 L109.806025,14.5973154 L109.522058,14.6979866 L109.359791,14.738255 L109.177241,14.7583893 L108.872991,14.8389262 L108.528175,14.8389262 L108.345625,14.8993289 L107.960241,14.9194631 L107.574858,14.9194631 L107.331458,14.9597315 L106.885225,14.9395973 Z M128.759476,14.5771812 L128.617493,14.557047 L128.434943,14.5771812 L127.968426,14.5369128 L127.562759,14.557047 L127.299076,14.5369128 L126.731143,14.557047 L126.305193,14.557047 L125.919809,14.5369128 L125.595276,14.5369128 L125.311309,14.5771812 L124.986776,14.557047 L124.885359,14.5771812 L124.439126,14.5369128 L123.830626,14.5369128 L123.161276,14.5167785 L122.431076,14.5369128 L121.78201,14.5369128 L121.457476,14.5167785 L121.132943,14.3355705 L120.889543,13.9328859 L120.848976,13.4496644 L120.848976,12.0201342 L120.828693,11.3959732 L120.848976,10.9328859 L120.848976,10.3087248 L120.828693,9.9261745 L120.80841,9.5033557 L120.788126,9.30201342 L120.788126,9.02013423 L120.80841,8.71812081 L120.80841,8.23489933 L120.788126,8.17449664 L120.80841,7.99328859 L120.788126,7.75167785 L120.788126,7.5704698 L120.767843,7.08724832 L120.788126,6.24161074 L120.80841,5.67785235 L120.80841,5.33557047 L120.788126,4.75167785 L120.788126,3.44295302 L120.74756,3.10067114 L120.767843,2.83892617 L120.767843,2.59731544 L120.788126,2.2147651 L120.788126,1.99328859 L120.80841,1.61073826 L120.828693,1.06711409 L120.909826,0.805369128 L121.05181,0.583892617 L121.274926,0.44295302 L121.437193,0.362416107 L121.66031,0.322147651 L122.248526,0.322147651 L123.100426,0.362416107 L124.439126,0.362416107 L125.007059,0.342281879 L125.433009,0.322147651 L126.061793,0.302013423 L127.380209,0.302013423 L127.826443,0.362416107 L128.272676,0.362416107 L128.597209,0.322147651 L129.165143,0.342281879 L129.489676,0.362416107 L130.301009,0.322147651 L130.524126,0.342281879 L130.828376,0.322147651 L131.152909,0.362416107 L131.457159,0.483221477 L131.619426,0.724832215 L131.741126,1.12751678 L131.781692,1.55033557 L131.761409,1.81208054 L131.639709,2.17449664 L131.416592,2.45637584 L131.193476,2.53691275 L130.726959,2.57718121 L129.996759,2.59731544 L129.570809,2.61744966 L129.388259,2.59731544 L128.739193,2.63758389 L127.785876,2.63758389 L127.015109,2.61744966 L126.548593,2.59731544 L126.345759,2.59731544 L125.940093,2.63758389 L124.865076,2.65771812 L124.499976,2.65771812 L124.053743,2.67785235 L123.668359,2.67785235 L123.303259,2.77852349 L123.242409,3.10067114 L123.222126,3.44295302 L123.18156,3.58389262 L123.18156,3.9261745 L123.161276,4.38926174 L123.201843,4.89261745 L123.18156,5.41610738 L123.282976,5.87919463 L123.526376,6.02013423 L123.688643,6.02013423 L124.134876,6.08053691 L124.662243,6.04026846 L125.007059,6.04026846 L125.433009,6.08053691 L125.879243,6.04026846 L127.420776,6.02013423 L128.536359,6.02013423 L128.840609,6.04026846 L129.185426,6.1409396 L129.428826,6.38255034 L129.509959,6.60402685 L129.550526,6.80536913 L129.570809,6.96644295 L129.611376,7.4295302 L129.550526,7.85234899 L129.408543,8.09395973 L129.002876,8.29530201 L127.927859,8.29530201 L126.751426,8.3557047 L126.102359,8.33557047 L125.879243,8.33557047 L125.047626,8.31543624 L124.804226,8.33557047 L124.439126,8.31543624 L123.952326,8.33557047 L123.708926,8.37583893 L123.445243,8.45637584 L123.303259,8.57718121 L123.282976,8.8590604 L123.262693,9.16107383 L123.222126,9.5033557 L123.222126,9.94630872 L123.242409,10.2483221 L123.242409,10.6308725 L123.222126,10.9530201 L123.222126,11.4966443 L123.404676,12.0201342 L123.972609,12.261745 L125.392443,12.261745 L125.960376,12.2416107 L126.528309,12.261745 L127.684459,12.2416107 L128.110409,12.2013423 L129.327409,12.2013423 L129.570809,12.2416107 L129.956193,12.2416107 L130.584976,12.261745 L131.092059,12.3020134 L131.355742,12.3020134 L131.518009,12.3422819 L131.700559,12.4630872 L131.822259,12.6442953 L131.883109,13.0067114 L131.862826,13.4295302 L131.862826,13.6711409 L131.822259,13.8926174 L131.741126,14.1342282 L131.619426,14.295302 L131.477442,14.3758389 L131.274609,14.4362416 L130.260443,14.5369128 L129.733076,14.5973154 L129.165143,14.5973154 L128.759476,14.5771812 Z" id="BERRIDGE-+-CO" fill="#FFFFFF"></path>
                        <polygon id="Path" fill="#17C37B" points="145.054945 11.9801762 144.936264 11.9603524 144.698901 11.8810573 144.461538 11.6431718 144.362637 11.4449339 144.342857 11.0682819 144.342857 10.5330396 144.382418 10.1762115 144.382418 9.72026432 144.342857 9.28414097 144.323077 9.04625551 144.224176 8.84801762 144.065934 8.7092511 143.769231 8.64977974 143.472527 8.62995595 142.523077 8.59030837 141.989011 8.59030837 141.474725 8.49118943 141.276923 8.35242291 141.118681 8.05506608 141 7.48017621 141.059341 7.00440529 141.158242 6.74669604 141.316484 6.48898678 141.534066 6.38986784 141.791209 6.31057269 142.305495 6.31057269 142.701099 6.35022026 143.057143 6.35022026 143.353846 6.38986784 143.769231 6.37004405 144.184615 6.27092511 144.303297 6.01321586 144.323077 5.39867841 144.303297 4.80396476 144.323077 4.46696035 144.342857 4.09030837 144.382418 3.77312775 144.501099 3.43612335 144.679121 3.1784141 144.857143 3.07929515 145.331868 3.01982379 145.885714 3 146.142857 3.03964758 146.320879 3.09911894 146.558242 3.35682819 146.637363 3.6938326 146.657143 3.97136564 146.696703 4.30837004 146.696703 4.68502203 146.716484 5.12114537 146.716484 5.81497797 146.756044 6.05286344 146.815385 6.15198238 146.973626 6.23127753 147.408791 6.33039648 148.16044 6.38986784 148.674725 6.40969163 149.07033 6.40969163 149.505495 6.50881057 149.762637 6.6277533 149.881319 6.8061674 149.96044 7.06387665 149.96044 7.30176211 150 7.75770925 149.96044 8.15418502 149.821978 8.41189427 149.564835 8.57048458 149.406593 8.61013216 149.208791 8.64977974 149.030769 8.62995595 148.773626 8.61013216 147.349451 8.59030837 146.835165 8.64977974 146.696703 8.76872247 146.657143 8.8876652 146.657143 9.20484581 146.637363 9.4030837 146.637363 10.2951542 146.657143 10.592511 146.637363 10.8898678 146.617582 11.2863436 146.558242 11.5044053 146.38022 11.7621145 145.885714 12 145.331868 12"></polygon>
                        <g id="Group-2" transform="translate(159.000000, 0.000000)" fill="#FFFFFF">
                            <path d="M26.677717,14.8187919 L26.3329004,14.8187919 L26.0286504,14.7986577 L25.6229837,14.738255 L25.1159004,14.738255 L24.7508004,14.6577181 L24.5479671,14.5973154 L24.2842838,14.5369128 L23.9191838,14.3959732 L23.4323838,14.2147651 L23.0267172,13.9932886 L22.8238839,13.8926174 L22.6007672,13.7516779 L22.3370839,13.6107383 L22.1545339,13.4697987 L21.9517006,13.3489933 L21.6677339,13.0872483 L21.3229173,12.7852349 L21.0998006,12.5637584 L20.3696006,11.6979866 L20.085634,11.1543624 L19.842234,10.7114094 L19.5785507,10.2483221 L19.4568507,9.80536913 L19.355434,9.54362416 L19.2540174,9.06040268 L19.172884,8.65771812 L19.1526007,8.41610738 L19.0917507,8.0738255 L19.0714674,7.79194631 L19.0917507,7.44966443 L19.0917507,6.86577181 L19.1526007,6.48322148 L19.1931674,6.12080537 L19.355434,5.61744966 L19.416284,5.29530201 L19.5785507,4.83221477 L19.781384,4.30872483 L19.963934,4.02684564 L20.1667673,3.58389262 L20.5521506,2.97986577 L20.8969673,2.51677852 L21.0998006,2.33557047 L21.2417839,2.15436242 L21.4446172,1.93288591 L21.6474506,1.73154362 L21.8097172,1.65100671 L22.0328339,1.4295302 L22.5804839,1.12751678 L23.0672838,0.88590604 L23.6352171,0.624161074 L24.0611671,0.503355705 L24.3248504,0.382550336 L24.8725004,0.201342282 L25.3795837,0.120805369 L25.7041171,0.0604026846 L26.190917,0.0805369128 L26.9008337,0.0604026846 L27.3876336,0.100671141 L27.6107503,0.100671141 L27.9758503,0.161073826 L28.3815169,0.261744966 L28.6452002,0.322147651 L28.8277502,0.402684564 L29.1320002,0.503355705 L29.4159669,0.604026846 L29.6999335,0.744966443 L30.0244669,0.926174497 L30.4504168,1.14765101 L31.0183501,1.51006711 L31.4443001,1.85234899 L31.8702501,2.25503356 L32.3773334,2.8590604 L32.7018667,3.24161074 L32.8438501,3.44295302 L32.96555,3.68456376 L33.1075334,3.88590604 L33.2900834,4.24832215 L33.4929167,4.7114094 L33.6146167,5.11409396 L33.7160333,5.43624161 L33.7566,5.61744966 L33.8377333,5.87919463 L33.93915,6.38255034 L33.9797167,6.70469799 L33.9797167,6.98657718 L34,7.30872483 L33.9594333,7.65100671 L33.9188667,8.17449664 L33.8783,8.4966443 L33.8580167,8.81879195 L33.7971667,9.22147651 L33.7363167,9.46308725 L33.6551833,9.80536913 L33.4726334,10.2885906 L33.3103667,10.7315436 L33.1278167,11.114094 L32.9858334,11.3557047 L32.8844167,11.557047 L32.7221501,11.7583893 L32.5801667,11.9395973 L32.4584667,12.1208054 L32.3773334,12.261745 L32.2556334,12.4026846 L32.0325168,12.6241611 L31.7688334,12.8255034 L31.5862834,13.0067114 L31.4443001,13.1275168 L31.2617501,13.2684564 L31.0994835,13.409396 L30.8966501,13.5302013 L30.7546668,13.6510067 L30.5112668,13.8120805 L30.1056002,14.033557 L29.6593669,14.295302 L29.3145502,14.4362416 L29.0914336,14.5167785 L28.6654836,14.6577181 L28.1584003,14.7986577 L27.7324503,14.8590604 L27.1442337,14.8590604 L26.677717,14.8187919 Z M27.3673503,12.4832215 L27.6310336,12.4630872 L27.7527336,12.442953 L27.8541503,12.3825503 L27.9352836,12.3422819 L28.1989669,12.3020134 L28.4626503,12.1812081 L28.7060502,12.1006711 L29.0914336,11.8993289 L29.4971002,11.6375839 L30.0244669,11.2550336 L30.3287168,10.9328859 L30.4301335,10.8120805 L30.5924002,10.5704698 L30.8966501,10.1879195 L31.3023168,9.58389262 L31.4240168,9.1409396 L31.5051501,8.75838926 L31.5660001,8.31543624 L31.6065668,7.77181208 L31.6471334,7.48993289 L31.6065668,6.96644295 L31.4645835,6.24161074 L31.3226001,5.77852349 L31.1197668,5.3557047 L31.0183501,5.01342282 L30.8966501,4.79194631 L30.7343835,4.46979866 L30.4909835,4.16778523 L30.3490002,3.98657718 L30.1258835,3.76510067 L29.4362502,3.22147651 L28.7871836,2.83892617 L28.4018003,2.67785235 L27.9758503,2.55704698 L27.8135836,2.51677852 L27.5499003,2.43624161 L27.2050836,2.3557047 L26.0895004,2.3557047 L25.7852504,2.41610738 L25.4201504,2.45637584 L24.9536338,2.59731544 L24.2842838,2.87919463 L23.1484172,3.52348993 L22.9455838,3.74496644 L22.7833172,3.94630872 L22.6616172,4.04697987 L22.4182172,4.38926174 L22.2356672,4.73154362 L22.1342506,4.87248322 L22.0531172,5.09395973 L21.9111339,5.3557047 L21.7894339,5.67785235 L21.6880172,6 L21.6474506,6.28187919 L21.5460339,6.72483221 L21.5054672,7.22818792 L21.5257506,7.46979866 L21.5460339,7.75167785 L21.5866006,8.0738255 L21.5866006,8.37583893 L21.6068839,8.47651007 L21.6677339,8.69798658 L21.7488672,9.06040268 L21.8097172,9.36241611 L22.0531172,9.80536913 L22.5399172,10.5302013 L22.9253005,11.0134228 L23.0672838,11.1744966 L23.3918172,11.4563758 L23.7974838,11.7181208 L23.9394671,11.7986577 L24.0206005,11.8389262 L24.3857004,12.0402685 L24.8116504,12.2416107 L25.1564671,12.3422819 L25.7244004,12.442953 L26.2923337,12.5234899 L26.7791337,12.5436242 L27.3673503,12.4832215 Z" id="Combined-Shape"></path>
                            <polygon id="Path" points="8.0285157 14.9597315 7.64313238 14.9798658 7.17661574 14.9597315 6.79123242 14.8791946 5.8379158 14.7181208 5.57423248 14.6174497 4.92516584 14.3959732 4.72233252 14.295302 4.49921586 14.1744966 4.29638254 14.0738255 4.17468254 13.9731544 3.89071589 13.8322148 3.6473159 13.6510067 3.40391591 13.5100671 3.18079926 13.2885906 3.07938259 13.2080537 2.85626594 13.0067114 2.63314928 12.7651007 2.34918263 12.4630872 2.10578264 12.1409396 1.96379931 11.9798658 1.80153265 11.7785235 1.65954933 11.557047 1.456716 11.2147651 1.27416601 10.852349 1.15246602 10.590604 1.01048269 10.2483221 0.827932699 9.88590604 0.767082702 9.62416107 0.66566604 9.34228188 0.645382707 9.08053691 0.58453271 8.87919463 0.564249378 8.53691275 0.503399381 8.23489933 0.483116048 7.77181208 0.462832716 7.4295302 0.462832716 6.82550336 0.564249378 6.46308725 0.604816042 6.24161074 0.726516037 5.75838926 0.888782696 5.13422819 1.09161602 4.67114094 1.21331601 4.34899329 1.33501601 4.10738255 1.517566 3.80536913 1.578416 3.6442953 1.61898266 3.58389262 1.78124932 3.36241611 2.06521597 3 2.36946596 2.61744966 2.65343261 2.29530201 2.91711594 2.03355705 3.32278258 1.7114094 3.82986589 1.36912752 4.23553254 1.08724832 4.84403251 0.765100671 5.18884916 0.624161074 5.49309915 0.523489933 5.81763247 0.422818792 6.08131579 0.362416107 6.6492491 0.22147651 6.97378241 0.161073826 7.15633241 0.140939597 7.56199905 0.120805369 7.98794903 0.0805369128 8.43418235 0.0805369128 8.88041566 0.140939597 9.04268232 0.181208054 9.44834897 0.22147651 9.87429895 0.342281879 10.4625156 0.523489933 11.0101656 0.724832215 11.1521489 0.805369128 11.5172489 1.00671141 11.9837655 1.22818792 12.4097155 1.55033557 12.7950988 1.83221477 13.0790655 2.05369128 13.4035988 2.3557047 13.6875654 2.69798658 13.9309654 3.06040268 14.0323821 3.32214765 14.0120988 3.6442953 13.8295488 3.96644295 13.6267154 4.22818792 13.3021821 4.55033557 13.0384988 4.69127517 12.6936821 4.73154362 12.3894322 4.67114094 12.1460322 4.48993289 11.8214989 4.16778523 11.4969655 3.88590604 11.2535655 3.60402685 10.9290322 3.36241611 10.7059156 3.20134228 10.3408156 3.02013423 9.99599894 2.83892617 9.65118229 2.75838926 9.14409898 2.61744966 8.778999 2.53691275 8.33276568 2.53691275 7.84596571 2.47651007 7.31859906 2.55704698 6.95349908 2.61744966 6.56811577 2.71812081 6.18273245 2.83892617 5.75678247 3.04026846 5.24969916 3.32214765 4.98601584 3.48322148 4.78318252 3.66442953 4.47893253 3.9261745 4.23553254 4.16778523 4.01241588 4.44966443 3.68788257 4.87248322 3.38363258 5.51677852 3.11994926 6.18120805 3.05909926 6.5033557 3.0185326 6.7852349 2.97796593 7.20805369 2.97796593 7.67114094 3.05909926 8.17449664 3.11994926 8.69798658 3.22136592 9.04026846 3.28221592 9.38255034 3.40391591 9.72483221 3.52561591 9.88590604 3.62703257 10.1073826 3.7081659 10.3288591 3.74873256 10.409396 3.91099922 10.590604 4.15439921 10.9530201 4.35723254 11.1946309 4.53978253 11.3758389 4.82374918 11.5973154 5.1482825 11.8791946 5.39168249 12.0201342 5.81763247 12.2416107 6.22329912 12.442953 6.50726577 12.5234899 6.89264908 12.6040268 7.48086572 12.704698 7.84596571 12.7248322 8.53559901 12.6845638 9.10353231 12.6040268 9.54976563 12.5033557 9.97571561 12.3624161 10.2799656 12.2416107 10.6044989 12.0604027 11.0101656 11.7785235 11.3752655 11.4966443 11.9634822 10.9127517 12.1663155 10.6912752 12.4705655 10.5503356 12.8559488 10.5100671 13.4644488 10.7315436 13.9715321 11.2751678 14.0932321 11.5973154 14.0729488 11.8389262 13.9715321 12.1812081 13.7484154 12.5436242 13.5050154 12.7852349 13.1601988 13.147651 12.1865988 13.8120805 11.8417822 13.9932886 11.6795155 14.114094 10.5639322 14.6174497 10.3002489 14.6778523 9.99599894 14.7583893 9.73231562 14.8187919 9.44834897 14.8993289 8.86013233 14.9395973 8.43418235 15"></polygon>
                        </g>
                    </g>
                </g>
            </g>
        </g>
    </g>
</svg>