<?xml version="1.0" encoding="UTF-8"?>
<svg width="988px" height="456px" viewBox="0 0 988 456" version="1.1" xmlns="http://www.w3.org/2000/svg" xmlns:xlink="http://www.w3.org/1999/xlink">
    <!-- Generator: Sketch 43.2 (39069) - http://www.bohemiancoding.com/sketch -->
    <title>swarm diagram</title>
    <desc>Created with Sketch.</desc>
    <defs></defs>
    <g id="Ideas-08---approved" stroke="none" stroke-width="1" fill="none" fill-rule="evenodd">
        <g id="Template---Home-Copy-3" transform="translate(-218.000000, -462.000000)">
            <g id="swarm-diagram" transform="translate(218.000000, 312.000000)">
                <g id="agency" transform="translate(0.000000, 147.000000)" fill="#17C37B">
                    <polygon id="Path-Copy-8" opacity="0.100000001" points="115.388497 436.251286 70.5151924 397.760533 38.4628322 365.684905 12.8209441 307.948775 -5.40012479e-13 259.835333 -5.40012479e-13 195.684078 25.6418881 118.702571 64.1047203 77.0042552 102.567553 48.1361903 153.851329 22.4756881 214.750813 3.23031145 294.881714 12.8529998 365.396906 48.1361903 419.885918 115.495009 455.143514 192.476515 461.553986 224.552143 461.553986 259.835333 451.938278 311.156338 426.29639 362.477342 378.21785 407.383221 298.08695 449.081537 201.929869 458.704225"></polygon>
                    <g id="DUDE" transform="translate(209.934968, 218.051971) rotate(-315.000000) translate(-209.934968, -218.051971) translate(146.434968, 156.051971)">
                        <polygon id="Path" points="62.0407145 72.6892922 59.6409017 70.6308167 57.9267498 68.9154204 56.5554282 65.827707 55.8697674 63.2546126 55.8697674 59.82382 57.241089 55.7068689 59.2980714 53.4768537 61.3550537 51.932997 64.0976968 50.56068 67.3545856 49.5314422 71.6399654 50.0460611 75.4110997 51.932997 78.3251581 55.5353292 80.2107252 59.6522803 80.5535556 61.3676766 80.5535556 63.2546126 80.03931 65.9992467 78.6679885 68.7438807 76.0967605 71.1454356 71.8113806 73.3754507 66.6689248 73.8900696"></polygon>
                        <polygon id="Path-Copy" points="108.240714 47.9235711 105.840902 45.8650956 104.12675 44.1496993 102.755428 41.0619859 102.069767 38.4888915 102.069767 35.0580989 103.441089 30.9411478 105.498071 28.7111326 107.555054 27.1672759 110.297697 25.7949589 113.554586 24.7657211 117.839965 25.28034 121.6111 27.1672759 124.525158 30.7696081 126.410725 34.8865593 126.753556 36.6019556 126.753556 38.4888915 126.23931 41.2335256 124.867988 43.9781596 122.296761 46.3797145 118.011381 48.6097297 112.868925 49.1243486"></polygon>
                        <polygon id="Path-Copy-2" points="62.0407145 23.1578501 59.6409017 21.0993745 57.9267498 19.3839782 56.5554282 16.2962649 55.8697674 13.7231704 55.8697674 10.2923778 57.241089 6.17542668 59.2980714 3.94541149 61.3550537 2.40155482 64.0976968 1.02923778 67.3545856 -8.2600593e-13 71.6399654 0.51461889 75.4110997 2.40155482 78.3251581 6.00388705 80.2107252 10.1208382 80.5535556 11.8362345 80.5535556 13.7231704 80.03931 16.4678045 78.6679885 19.2124386 76.0967605 21.6139934 71.8113806 23.8440086 66.6689248 24.3586275"></polygon>
                        <polygon id="Path-Copy-3" points="6.17094704 72.6892922 3.7711343 70.6308167 2.05698235 68.9154204 0.685660783 65.827707 8.24229573e-13 63.2546126 8.24229573e-13 59.82382 1.37132157 55.7068689 3.42830391 53.4768537 5.48528626 51.932997 8.22792939 50.56068 11.4848181 49.5314422 15.770198 50.0460611 19.5413323 51.932997 22.4553906 55.5353292 24.3409578 59.6522803 24.6837882 61.3676766 24.6837882 63.2546126 24.1695426 65.9992467 22.798221 68.7438807 20.2269931 71.1454356 15.9416132 73.3754507 10.7991573 73.8900696"></polygon>
                        <polygon id="Path-Copy-4" points="50.2221098 122.220734 47.8222971 120.162259 46.1081451 118.446863 44.7368236 115.359149 44.0511628 112.786055 44.0511628 109.355262 45.4224844 105.238311 47.4794667 103.008296 49.5364491 101.464439 52.2790922 100.092122 55.5359809 99.0628843 59.8213608 99.5775032 63.5924951 101.464439 66.5065534 105.066771 68.3921206 109.183723 68.734951 110.899119 68.734951 112.786055 68.2207054 115.530689 66.8493838 118.275323 64.2781559 120.676878 59.992776 122.906893 54.8503201 123.421512"></polygon>
                        <polygon id="Path-Copy-5" points="108.240714 110.376259 105.840902 108.317784 104.12675 106.602387 102.755428 103.514674 102.069767 100.941579 102.069767 97.5107868 103.441089 93.3938357 105.498071 91.1638205 107.555054 89.6199639 110.297697 88.2476468 113.554586 87.218409 117.839965 87.7330279 121.6111 89.6199639 124.525158 93.2222961 126.410725 97.3392472 126.753556 99.0546435 126.753556 100.941579 126.23931 103.686214 124.867988 106.430848 122.296761 108.832402 118.011381 111.062418 112.868925 111.577037"></polygon>
                    </g>
                    <g id="DUDE-Copy-5" transform="translate(244.968078, 186.745417) rotate(-315.000000) translate(-244.968078, -186.745417) translate(76.968078, 91.245417)">
                        <polygon id="Path" points="23.3616447 78.0731446 20.961832 76.0146691 19.24768 74.2992728 17.8763585 71.2115594 17.1906977 68.638465 17.1906977 65.2076724 18.5620192 61.0907213 20.6190016 58.8607061 22.6759839 57.3168494 25.4186271 55.9445324 28.6755158 54.9152946 32.9608957 55.4299135 36.73203 57.3168494 39.6460883 60.9191816 41.5316555 65.0361328 41.8744859 66.7515291 41.8744859 68.638465 41.3602403 71.3830991 39.9889187 74.1277331 37.4176908 76.529288 33.1323109 78.7593032 27.989855 79.273922"></polygon>
                        <polygon id="Path-Copy" points="52.370947 120.067193 49.9711343 118.008718 48.2569823 116.293322 46.8856608 113.205608 46.2 110.632514 46.2 107.201721 47.5713216 103.08477 49.6283039 100.854755 51.6852863 99.3108982 54.4279294 97.9385812 57.6848181 96.9093434 61.970198 97.4239623 65.7413323 99.3108982 68.6553906 102.91323 70.5409578 107.030182 70.8837882 108.745578 70.8837882 110.632514 70.3695426 113.377148 68.998221 116.121782 66.4269931 118.523337 62.1416132 120.753352 56.9991573 121.267971"></polygon>
                        <polygon id="Path-Copy-2" points="316.677924 23.1578501 314.278111 21.0993745 312.563959 19.3839782 311.192638 16.2962649 310.506977 13.7231704 310.506977 10.2923778 311.878298 6.17542668 313.935281 3.94541149 315.992263 2.40155482 318.734906 1.02923778 321.991795 -1.35180755e-12 326.277175 0.51461889 330.048309 2.40155482 332.962367 6.00388705 334.847935 10.1208382 335.190765 11.8362345 335.190765 13.7231704 334.676519 16.4678045 333.305198 19.2124386 330.73397 21.6139934 326.44859 23.8440086 321.306134 24.3586275"></polygon>
                        <polygon id="Path-Copy-3" points="117.910482 65.1518989 115.510669 63.0934233 113.796517 61.378027 112.425196 58.2903137 111.739535 55.7172192 111.739535 52.2864266 113.110856 48.1694755 115.167839 45.9394603 117.224821 44.3956036 119.967464 43.0232866 123.224353 41.9940488 127.509733 42.5086677 131.280867 44.3956036 134.194926 47.9979359 136.080493 52.114887 136.423323 53.8302833 136.423323 55.7172192 135.909077 58.4618533 134.537756 61.2064874 131.966528 63.6080422 127.681148 65.8380574 122.538692 66.3526763"></polygon>
                        <polygon id="Path-Copy-4" points="6.17094704 188.980504 3.7711343 186.922029 2.05698235 185.206632 0.685660783 182.118919 -3.41060513e-13 179.545825 -3.41060513e-13 176.115032 1.37132157 171.998081 3.42830391 169.768066 5.48528626 168.224209 8.22792939 166.851892 11.4848181 165.822654 15.770198 166.337273 19.5413323 168.224209 22.4553906 171.826541 24.3409578 175.943492 24.6837882 177.658889 24.6837882 179.545825 24.1695426 182.290459 22.798221 185.035093 20.2269931 187.436648 15.9416132 189.666663 10.7991573 190.181282"></polygon>
                        <polygon id="Path-Copy-5" points="64.1895517 177.136029 61.789739 175.077553 60.075587 173.362157 58.7042654 170.274444 58.0186047 167.701349 58.0186047 164.270557 59.3899262 160.153606 61.4469086 157.92359 63.5038909 156.379734 66.246534 155.007417 69.5034228 153.978179 73.7888027 154.492798 77.559937 156.379734 80.4739953 159.982066 82.3595624 164.099017 82.7023928 165.814413 82.7023928 167.701349 82.1881472 170.445983 80.8168257 173.190617 78.2455977 175.592172 73.9602178 177.822188 68.817762 178.336806"></polygon>
                    </g>
                    <g id="DUDE-Copy-6" transform="translate(74.034836, 198.197638) rotate(-315.000000) translate(-74.034836, -198.197638) translate(61.534836, 185.697638)">
                        <polygon id="Path" points="6.17094704 23.1578501 3.7711343 21.0993745 2.05698235 19.3839782 0.685660783 16.2962649 3.99147382e-12 13.7231704 3.99147382e-12 10.2923778 1.37132157 6.17542668 3.42830391 3.94541149 5.48528626 2.40155482 8.22792939 1.02923778 11.4848181 -3.67883501e-12 15.770198 0.51461889 19.5413323 2.40155482 22.4553906 6.00388705 24.3409578 10.1208382 24.6837882 11.8362345 24.6837882 13.7231704 24.1695426 16.4678045 22.798221 19.2124386 20.2269931 21.6139934 15.9416132 23.8440086 10.7991573 24.3586275"></polygon>
                    </g>
                    <g id="DUDE-Copy" transform="translate(336.716363, 169.597299) rotate(-315.000000) translate(-336.716363, -169.597299) translate(273.216363, 107.597299)">
                        <polygon id="Path" points="62.0407145 72.6892922 59.6409017 70.6308167 57.9267498 68.9154204 56.5554282 65.827707 55.8697674 63.2546126 55.8697674 59.82382 57.241089 55.7068689 59.2980714 53.4768537 61.3550537 51.932997 64.0976968 50.56068 67.3545856 49.5314422 71.6399654 50.0460611 75.4110997 51.932997 78.3251581 55.5353292 80.2107252 59.6522803 80.5535556 61.3676766 80.5535556 63.2546126 80.03931 65.9992467 78.6679885 68.7438807 76.0967605 71.1454356 71.8113806 73.3754507 66.6689248 73.8900696"></polygon>
                        <polygon id="Path-Copy" points="108.240714 47.9235711 105.840902 45.8650956 104.12675 44.1496993 102.755428 41.0619859 102.069767 38.4888915 102.069767 35.0580989 103.441089 30.9411478 105.498071 28.7111326 107.555054 27.1672759 110.297697 25.7949589 113.554586 24.7657211 117.839965 25.28034 121.6111 27.1672759 124.525158 30.7696081 126.410725 34.8865593 126.753556 36.6019556 126.753556 38.4888915 126.23931 41.2335256 124.867988 43.9781596 122.296761 46.3797145 118.011381 48.6097297 112.868925 49.1243486"></polygon>
                        <polygon id="Path-Copy-2" points="62.0407145 23.1578501 59.6409017 21.0993745 57.9267498 19.3839782 56.5554282 16.2962649 55.8697674 13.7231704 55.8697674 10.2923778 57.241089 6.17542668 59.2980714 3.94541149 61.3550537 2.40155482 64.0976968 1.02923778 67.3545856 -4.70734562e-13 71.6399654 0.51461889 75.4110997 2.40155482 78.3251581 6.00388705 80.2107252 10.1208382 80.5535556 11.8362345 80.5535556 13.7231704 80.03931 16.4678045 78.6679885 19.2124386 76.0967605 21.6139934 71.8113806 23.8440086 66.6689248 24.3586275"></polygon>
                        <polygon id="Path-Copy-3" points="6.17094704 72.6892922 3.7711343 70.6308167 2.05698235 68.9154204 0.685660783 65.827707 1.13686838e-12 63.2546126 1.13686838e-12 59.82382 1.37132157 55.7068689 3.42830391 53.4768537 5.48528626 51.932997 8.22792939 50.56068 11.4848181 49.5314422 15.770198 50.0460611 19.5413323 51.932997 22.4553906 55.5353292 24.3409578 59.6522803 24.6837882 61.3676766 24.6837882 63.2546126 24.1695426 65.9992467 22.798221 68.7438807 20.2269931 71.1454356 15.9416132 73.3754507 10.7991573 73.8900696"></polygon>
                        <polygon id="Path-Copy-4" points="50.2221098 122.220734 47.8222971 120.162259 46.1081451 118.446863 44.7368236 115.359149 44.0511628 112.786055 44.0511628 109.355262 45.4224844 105.238311 47.4794667 103.008296 49.5364491 101.464439 52.2790922 100.092122 55.5359809 99.0628843 59.8213608 99.5775032 63.5924951 101.464439 66.5065534 105.066771 68.3921206 109.183723 68.734951 110.899119 68.734951 112.786055 68.2207054 115.530689 66.8493838 118.275323 64.2781559 120.676878 59.992776 122.906893 54.8503201 123.421512"></polygon>
                        <polygon id="Path-Copy-5" points="108.240714 110.376259 105.840902 108.317784 104.12675 106.602387 102.755428 103.514674 102.069767 100.941579 102.069767 97.5107868 103.441089 93.3938357 105.498071 91.1638205 107.555054 89.6199639 110.297697 88.2476468 113.554586 87.218409 117.839965 87.7330279 121.6111 89.6199639 124.525158 93.2222961 126.410725 97.3392472 126.753556 99.0546435 126.753556 100.941579 126.23931 103.686214 124.867988 106.430848 122.296761 108.832402 118.011381 111.062418 112.868925 111.577037"></polygon>
                    </g>
                    <g id="DUDE-Copy-2" transform="translate(336.716363, 307.423921) rotate(-315.000000) translate(-336.716363, -307.423921) translate(273.216363, 245.423921)">
                        <polygon id="Path" points="62.0407145 72.6892922 59.6409017 70.6308167 57.9267498 68.9154204 56.5554282 65.827707 55.8697674 63.2546126 55.8697674 59.82382 57.241089 55.7068689 59.2980714 53.4768537 61.3550537 51.932997 64.0976968 50.56068 67.3545856 49.5314422 71.6399654 50.0460611 75.4110997 51.932997 78.3251581 55.5353292 80.2107252 59.6522803 80.5535556 61.3676766 80.5535556 63.2546126 80.03931 65.9992467 78.6679885 68.7438807 76.0967605 71.1454356 71.8113806 73.3754507 66.6689248 73.8900696"></polygon>
                        <polygon id="Path-Copy" points="108.240714 47.9235711 105.840902 45.8650956 104.12675 44.1496993 102.755428 41.0619859 102.069767 38.4888915 102.069767 35.0580989 103.441089 30.9411478 105.498071 28.7111326 107.555054 27.1672759 110.297697 25.7949589 113.554586 24.7657211 117.839965 25.28034 121.6111 27.1672759 124.525158 30.7696081 126.410725 34.8865593 126.753556 36.6019556 126.753556 38.4888915 126.23931 41.2335256 124.867988 43.9781596 122.296761 46.3797145 118.011381 48.6097297 112.868925 49.1243486"></polygon>
                        <polygon id="Path-Copy-2" points="62.0407145 23.1578501 59.6409017 21.0993745 57.9267498 19.3839782 56.5554282 16.2962649 55.8697674 13.7231704 55.8697674 10.2923778 57.241089 6.17542668 59.2980714 3.94541149 61.3550537 2.40155482 64.0976968 1.02923778 67.3545856 -7.83373366e-13 71.6399654 0.51461889 75.4110997 2.40155482 78.3251581 6.00388705 80.2107252 10.1208382 80.5535556 11.8362345 80.5535556 13.7231704 80.03931 16.4678045 78.6679885 19.2124386 76.0967605 21.6139934 71.8113806 23.8440086 66.6689248 24.3586275"></polygon>
                        <polygon id="Path-Copy-3" points="6.17094704 72.6892922 3.7711343 70.6308167 2.05698235 68.9154204 0.685660783 65.827707 1.70530257e-13 63.2546126 1.70530257e-13 59.82382 1.37132157 55.7068689 3.42830391 53.4768537 5.48528626 51.932997 8.22792939 50.56068 11.4848181 49.5314422 15.770198 50.0460611 19.5413323 51.932997 22.4553906 55.5353292 24.3409578 59.6522803 24.6837882 61.3676766 24.6837882 63.2546126 24.1695426 65.9992467 22.798221 68.7438807 20.2269931 71.1454356 15.9416132 73.3754507 10.7991573 73.8900696"></polygon>
                        <polygon id="Path-Copy-4" points="50.2221098 122.220734 47.8222971 120.162259 46.1081451 118.446863 44.7368236 115.359149 44.0511628 112.786055 44.0511628 109.355262 45.4224844 105.238311 47.4794667 103.008296 49.5364491 101.464439 52.2790922 100.092122 55.5359809 99.0628843 59.8213608 99.5775032 63.5924951 101.464439 66.5065534 105.066771 68.3921206 109.183723 68.734951 110.899119 68.734951 112.786055 68.2207054 115.530689 66.8493838 118.275323 64.2781559 120.676878 59.992776 122.906893 54.8503201 123.421512"></polygon>
                        <polygon id="Path-Copy-5" points="108.240714 110.376259 105.840902 108.317784 104.12675 106.602387 102.755428 103.514674 102.069767 100.941579 102.069767 97.5107868 103.441089 93.3938357 105.498071 91.1638205 107.555054 89.6199639 110.297697 88.2476468 113.554586 87.218409 117.839965 87.7330279 121.6111 89.6199639 124.525158 93.2222961 126.410725 97.3392472 126.753556 99.0546435 126.753556 100.941579 126.23931 103.686214 124.867988 106.430848 122.296761 108.832402 118.011381 111.062418 112.868925 111.577037"></polygon>
                    </g>
                    <g id="DUDE-Copy-3" transform="translate(208.345960, 294.702081) rotate(-315.000000) translate(-208.345960, -294.702081) translate(101.345960, 183.702081)">
                        <polygon id="Path" points="149.068621 170.675406 146.668809 168.616931 144.954657 166.901534 143.583335 163.813821 142.897674 161.240726 142.897674 157.809934 144.268996 153.692983 146.325978 151.462968 148.382961 149.919111 151.125604 148.546794 154.382493 147.517556 158.667872 148.032175 162.439007 149.919111 165.353065 153.521443 167.238632 157.638394 167.581463 159.353791 167.581463 161.240726 167.067217 163.985361 165.695895 166.729995 163.124668 169.131549 158.839288 171.361565 153.696832 171.876184"></polygon>
                        <polygon id="Path-Copy" points="195.268621 145.909685 192.868809 143.851209 191.154657 142.135813 189.783335 139.0481 189.097674 136.475005 189.097674 133.044213 190.468996 128.927262 192.525978 126.697246 194.582961 125.15339 197.325604 123.781073 200.582493 122.751835 204.867872 123.266454 208.639007 125.15339 211.553065 128.755722 213.438632 132.872673 213.781463 134.588069 213.781463 136.475005 213.267217 139.219639 211.895895 141.964274 209.324668 144.365828 205.039288 146.595844 199.896832 147.110462"></polygon>
                        <polygon id="Path-Copy-2" points="149.068621 121.143964 146.668809 119.085488 144.954657 117.370092 143.583335 114.282379 142.897674 111.709284 142.897674 108.278492 144.268996 104.161541 146.325978 101.931525 148.382961 100.387669 151.125604 99.0153516 154.382493 97.9861139 158.667872 98.5007328 162.439007 100.387669 165.353065 103.990001 167.238632 108.106952 167.581463 109.822348 167.581463 111.709284 167.067217 114.453918 165.695895 117.198552 163.124668 119.600107 158.839288 121.830122 153.696832 122.344741"></polygon>
                        <polygon id="Path-Copy-3" points="93.198854 170.675406 90.7990413 168.616931 89.0848893 166.901534 87.7135678 163.813821 87.027907 161.240726 87.027907 157.809934 88.3992285 153.692983 90.4562109 151.462968 92.5131932 149.919111 95.2558364 148.546794 98.5127251 147.517556 102.798105 148.032175 106.569239 149.919111 109.483298 153.521443 111.368865 157.638394 111.711695 159.353791 111.711695 161.240726 111.19745 163.985361 109.826128 166.729995 107.2549 169.131549 102.96952 171.361565 97.8270643 171.876184"></polygon>
                        <polygon id="Path-Copy-4" points="137.250017 220.206848 134.850204 218.148373 133.136052 216.432976 131.764731 213.345263 131.07907 210.772169 131.07907 207.341376 132.450391 203.224425 134.507374 200.99441 136.564356 199.450553 139.306999 198.078236 142.563888 197.048998 146.849268 197.563617 150.620402 199.450553 153.53446 203.052885 155.420028 207.169836 155.762858 208.885233 155.762858 210.772169 155.248612 213.516803 153.877291 216.261437 151.306063 218.662992 147.020683 220.893007 141.878227 221.407626"></polygon>
                        <polygon id="Path-Copy-5" points="6.17094704 23.1578501 3.7711343 21.0993745 2.05698235 19.3839782 0.685660783 16.2962649 5.68434189e-13 13.7231704 5.68434189e-13 10.2923778 1.37132157 6.17542668 3.42830391 3.94541149 5.48528626 2.40155482 8.22792939 1.02923778 11.4848181 -8.70414851e-14 15.770198 0.51461889 19.5413323 2.40155482 22.4553906 6.00388705 24.3409578 10.1208382 24.6837882 11.8362345 24.6837882 13.7231704 24.1695426 16.4678045 22.798221 19.2124386 20.2269931 21.6139934 15.9416132 23.8440086 10.7991573 24.3586275"></polygon>
                    </g>
                    <g id="DUDE-Copy-4" transform="translate(196.480469, 201.311443) rotate(-315.000000) translate(-196.480469, -201.311443) translate(117.480469, 11.311443)">
                        <polygon id="Path" points="37.3290866 340.805142 34.9292738 338.746667 33.2151219 337.03127 31.8438003 333.943557 31.1581395 331.370463 31.1581395 327.93967 32.5294611 323.822719 34.5864434 321.592704 36.6434258 320.048847 39.3860689 318.67653 42.6429576 317.647292 46.9283375 318.161911 50.6994718 320.048847 53.6135302 323.651179 55.4990973 327.76813 55.8419277 329.483527 55.8419277 331.370463 55.3276821 334.115097 53.9563606 336.859731 51.3851326 339.261286 47.0997527 341.491301 41.9572969 342.00592"></polygon>
                        <polygon id="Path-Copy" points="83.5290866 316.039421 81.1292738 313.980946 79.4151219 312.265549 78.0438003 309.177836 77.3581395 306.604742 77.3581395 303.173949 78.7294611 299.056998 80.7864434 296.826983 82.8434258 295.283126 85.5860689 293.910809 88.8429576 292.881571 93.1283375 293.39619 96.8994718 295.283126 99.8135302 298.885458 101.699097 303.002409 102.041928 304.717806 102.041928 306.604742 101.527682 309.349376 100.156361 312.09401 97.5851326 314.495565 93.2997527 316.72558 88.1572969 317.240199"></polygon>
                        <polygon id="Path-Copy-2" points="37.3290866 291.2737 34.9292738 289.215225 33.2151219 287.499828 31.8438003 284.412115 31.1581395 281.83902 31.1581395 278.408228 32.5294611 274.291277 34.5864434 272.061262 36.6434258 270.517405 39.3860689 269.145088 42.6429576 268.11585 46.9283375 268.630469 50.6994718 270.517405 53.6135302 274.119737 55.4990973 278.236688 55.8419277 279.952085 55.8419277 281.83902 55.3276821 284.583655 53.9563606 287.328289 51.3851326 289.729843 47.0997527 291.959859 41.9572969 292.474477"></polygon>
                        <polygon id="Path-Copy-6" points="95.3476912 23.1578501 92.9478785 21.0993745 91.2337265 19.3839782 89.862405 16.2962649 89.1767442 13.7231704 89.1767442 10.2923778 90.5480658 6.17542668 92.6050481 3.94541149 94.6620304 2.40155482 97.4046736 1.02923778 100.661562 -2.22932783e-12 104.946942 0.51461889 108.718076 2.40155482 111.632135 6.00388705 113.517702 10.1208382 113.860532 11.8362345 113.860532 13.7231704 113.346287 16.4678045 111.974965 19.2124386 109.403737 21.6139934 105.118357 23.8440086 99.9759015 24.3586275"></polygon>
                        <polygon id="Path-Copy-7" points="6.17094704 109.299489 3.7711343 107.241013 2.05698235 105.525617 0.685660783 102.437903 -8.52651283e-13 99.864809 -8.52651283e-13 96.4340164 1.37132157 92.3170652 3.42830391 90.0870501 5.48528626 88.5431934 8.22792939 87.1708763 11.4848181 86.1416386 15.770198 86.6562575 19.5413323 88.5431934 22.4553906 92.1455256 24.3409578 96.2624767 24.6837882 97.977873 24.6837882 99.864809 24.1695426 102.609443 22.798221 105.354077 20.2269931 107.755632 15.9416132 109.985647 10.7991573 110.500266"></polygon>
                        <polygon id="Path-Copy-3" points="37.3290866 47.9235711 34.9292738 45.8650956 33.2151219 44.1496993 31.8438003 41.0619859 31.1581395 38.4888915 31.1581395 35.0580989 32.5294611 30.9411478 34.5864434 28.7111326 36.6434258 27.1672759 39.3860689 25.7949589 42.6429576 24.7657211 46.9283375 25.28034 50.6994718 27.1672759 53.6135302 30.7696081 55.4990973 34.8865593 55.8419277 36.6019556 55.8419277 38.4888915 55.3276821 41.2335256 53.9563606 43.9781596 51.3851326 46.3797145 47.0997527 48.6097297 41.9572969 49.1243486"></polygon>
                        <polygon id="Path-Copy-4" points="139.398854 353.726388 136.999041 351.667912 135.284889 349.952516 133.913568 346.864803 133.227907 344.291708 133.227907 340.860916 134.599229 336.743965 136.656211 334.513949 138.713193 332.970093 141.455836 331.597776 144.712725 330.568538 148.998105 331.083157 152.769239 332.970093 155.683298 336.572425 157.568865 340.689376 157.911695 342.404772 157.911695 344.291708 157.39745 347.036342 156.026128 349.780977 153.4549 352.182531 149.16952 354.412547 144.027064 354.927165"></polygon>
                        <polygon id="Path-Copy-5" points="83.5290866 378.492109 81.1292738 376.433634 79.4151219 374.718237 78.0438003 371.630524 77.3581395 369.057429 77.3581395 365.626637 78.7294611 361.509686 80.7864434 359.279671 82.8434258 357.735814 85.5860689 356.363497 88.8429576 355.334259 93.1283375 355.848878 96.8994718 357.735814 99.8135302 361.338146 101.699097 365.455097 102.041928 367.170494 102.041928 369.057429 101.527682 371.802064 100.156361 374.546698 97.5851326 376.948252 93.2997527 379.178268 88.1572969 379.692887"></polygon>
                    </g>
                </g>
                <g id="berridge" transform="translate(521.000000, 99.000000)">
                    <polygon id="Path-Copy-8" fill="#17C37B" opacity="0.100000001" points="234.677899 338.155353 220.289002 325.862739 210.011218 315.618895 201.788991 297.179975 197.677878 281.814208 197.677878 261.326519 205.900105 236.741293 218.233445 223.424295 230.566785 214.204835 247.011239 206.009759 266.539028 199.863453 292.233486 202.936606 314.84461 214.204835 332.316842 235.716908 343.622404 260.302135 345.677961 270.545979 345.677961 281.814208 342.594626 298.204359 334.372399 314.59451 318.955724 328.935893 293.261265 342.25289 262.427914 345.326044"></polygon>
                    <g id="DUDE" transform="translate(270.418804, 269.817589) rotate(-315.000000) translate(-270.418804, -269.817589) translate(78.918804, 79.817589)" fill="#2C3979" opacity="0.141644022">
                        <polygon id="Path-Copy-3" points="115.019859 63.0023062 112.613086 60.9461702 110.893962 59.2327234 109.518663 56.1485193 108.831014 53.5783492 108.831014 50.1514557 110.206313 46.0391836 112.269261 43.8117028 114.332209 42.2696008 117.082807 40.8988434 120.349142 39.8707753 124.646951 40.3848094 128.429023 42.2696008 131.351533 45.8678389 133.242569 49.9801111 133.586394 51.6935578 133.586394 53.5783492 133.070657 56.319864 131.695358 59.0613787 129.116672 61.4602042 124.818863 63.6876849 119.661493 64.2017189"></polygon>
                        <polygon id="Path" points="18.2954849 189.133905 15.8887119 187.077769 14.1695883 185.364322 12.7942894 182.280118 12.10664 179.709948 12.10664 176.283054 13.4819389 172.170782 15.5448872 169.943302 17.6078355 168.4012 20.3584332 167.030442 23.6247681 166.002374 27.9225771 166.516408 31.704649 168.4012 34.6271591 171.999438 36.518195 176.11171 36.8620197 177.825157 36.8620197 179.709948 36.3462827 182.451463 34.9709838 185.192977 32.3922984 187.591803 28.0944894 189.819284 22.9371186 190.333318"></polygon>
                        <polygon id="Path-Copy" points="64.629481 164.39633 62.2227079 162.340194 60.5035843 160.626748 59.1282855 157.542543 58.440636 154.972373 58.440636 151.54548 59.8159349 147.433208 61.8788832 145.205727 63.9418315 143.663625 66.6924293 142.292868 69.9587641 141.2648 74.2565731 141.778834 78.038645 143.663625 80.9611551 147.261863 82.852191 151.374135 83.1960158 153.087582 83.1960158 154.972373 82.6802787 157.713888 81.3049798 160.455403 78.7262944 162.854228 74.4284854 165.081709 69.2711147 165.595743"></polygon>
                        <polygon id="Path-Copy-2" points="317.850157 72.9748592 315.443384 70.9187232 313.72426 69.2052764 312.348961 66.1210723 311.661312 63.5509022 311.661312 60.1240088 313.036611 56.0117366 315.099559 53.7842558 317.162507 52.2421538 319.913105 50.8713964 323.17944 49.8433284 327.477249 50.3573624 331.259321 52.2421538 334.181831 55.8403919 336.072867 59.9526641 336.416692 61.6661108 336.416692 63.5509022 335.900955 66.292417 334.525656 69.0339318 331.94697 71.4327572 327.649161 73.6602379 322.491791 74.174272"></polygon>
                        <polygon id="Path-Copy-3" points="118.506221 114.921181 116.099447 112.865045 114.380324 111.151598 113.005025 108.067394 112.317376 105.497224 112.317376 102.070331 113.692674 97.9580587 115.755623 95.7305779 117.818571 94.1884759 120.569169 92.8177185 123.835504 91.7896504 128.133313 92.3036844 131.915385 94.1884759 134.837895 97.786714 136.728931 101.898986 137.072755 103.612433 137.072755 105.497224 136.557018 108.238739 135.181719 110.980254 132.603034 113.379079 128.305225 115.60656 123.147854 116.120594"></polygon>
                        <polygon id="Path-Copy-4" points="6.44260223 238.609054 4.0358292 236.552918 2.31670561 234.839471 0.941406738 231.755267 0.253757301 229.185097 0.253757301 225.758204 1.62905617 221.645931 3.69200449 219.418451 5.7549528 217.876349 8.50555054 216.505591 11.7718854 215.477523 16.0696943 215.991557 19.8517662 217.876349 22.7742764 221.474587 24.6653123 225.586859 25.009137 227.300306 25.009137 229.185097 24.4933999 231.926612 23.1181011 234.668127 20.5394157 237.066952 16.2416067 239.294433 11.0842359 239.808467"></polygon>
                        <polygon id="Path-Copy-5" points="64.629481 226.77804 62.2227079 224.721904 60.5035843 223.008457 59.1282855 219.924253 58.440636 217.354083 58.440636 213.92719 59.8159349 209.814918 61.8788832 207.587437 63.9418315 206.045335 66.6924293 204.674577 69.9587641 203.646509 74.2565731 204.160543 78.038645 206.045335 80.9611551 209.643573 82.852191 213.755845 83.1960158 215.469292 83.1960158 217.354083 82.6802787 220.095598 81.3049798 222.837113 78.7262944 225.235938 74.4284854 227.463419 69.2711147 227.977453"></polygon>
                        <polygon id="Path" points="49.2786919 284.96407 46.8719188 282.907934 45.1527952 281.194487 43.7774964 278.110283 43.0898469 275.540113 43.0898469 272.113219 44.4651458 268.000947 46.5280941 265.773466 48.5910424 264.231364 51.3416402 262.860607 54.607975 261.832539 58.905784 262.346573 62.6878559 264.231364 65.610366 267.829603 67.5014019 271.941875 67.8452267 273.655321 67.8452267 275.540113 67.3294896 278.281628 65.9541907 281.023142 63.3755053 283.421968 59.0776963 285.649449 53.9203256 286.163483"></polygon>
                        <polygon id="Path" points="220.207507 78.85758 217.800734 76.8014439 216.08161 75.0879972 214.706311 72.0037931 214.018662 69.433623 214.018662 66.0067295 215.393961 61.8944574 217.456909 59.6669766 219.519857 58.1248746 222.270455 56.7541172 225.53679 55.7260491 229.834599 56.2400832 233.616671 58.1248746 236.539181 61.7231127 238.430217 65.8353849 238.774042 67.5488316 238.774042 69.433623 238.258304 72.1751378 236.883006 74.9166525 234.30432 77.315478 230.006511 79.5429587 224.84914 80.0569927"></polygon>
                        <polygon id="Path-Copy" points="266.541503 54.1200055 264.13473 52.0638694 262.415606 50.3504227 261.040307 47.2662185 260.352658 44.6960484 260.352658 41.269155 261.727957 37.1568828 263.790905 34.9294021 265.853853 33.3873 268.604451 32.0165426 271.870786 30.9884746 276.168595 31.5025086 279.950667 33.3873 282.873177 36.9855381 284.764213 41.0978103 285.108038 42.811257 285.108038 44.6960484 284.592301 47.4375632 283.217002 50.179078 280.638316 52.5779034 276.340507 54.8053842 271.183136 55.3194182"></polygon>
                        <polygon id="Path-Copy-2" points="220.207507 29.3824309 217.800734 27.3262948 216.08161 25.6128481 214.706311 22.528644 214.018662 19.9584739 214.018662 16.5315804 215.393961 12.4193083 217.456909 10.1918275 219.519857 8.64972545 222.270455 7.27896807 225.53679 6.25090003 229.834599 6.76493405 233.616671 8.64972545 236.539181 12.2479636 238.430217 16.3602357 238.774042 18.0736825 238.774042 19.9584739 238.258304 22.6999887 236.883006 25.4415034 234.30432 27.8403289 230.006511 30.0678096 224.84914 30.5818436"></polygon>
                        <polygon id="Path-Copy-3" points="164.175698 78.85758 161.768925 76.8014439 160.049801 75.0879972 158.674502 72.0037931 157.986853 69.433623 157.986853 66.0067295 159.362152 61.8944574 161.4251 59.6669766 163.488048 58.1248746 166.238646 56.7541172 169.504981 55.7260491 173.80279 56.2400832 177.584862 58.1248746 180.507372 61.7231127 182.398408 65.8353849 182.742232 67.5488316 182.742232 69.433623 182.226495 72.1751378 180.851196 74.9166525 178.272511 77.315478 173.974702 79.5429587 168.817331 80.0569927"></polygon>
                        <polygon id="Path-Copy-4" points="195.424207 116.501715 193.017434 114.445579 191.29831 112.732132 189.923011 109.647928 189.235362 107.077758 189.235362 103.650865 190.610661 99.5385926 192.673609 97.3111118 194.736557 95.7690097 197.487155 94.3982524 200.75349 93.3701843 205.051299 93.8842183 208.833371 95.7690097 211.755881 99.3672479 213.646917 103.47952 213.990741 105.192967 213.990741 107.077758 213.475004 109.819273 212.099705 112.560788 209.52102 114.959613 205.223211 117.187094 200.06584 117.701128"></polygon>
                        <polygon id="Path-Copy-5" points="266.541503 116.501715 264.13473 114.445579 262.415606 112.732132 261.040307 109.647928 260.352658 107.077758 260.352658 103.650865 261.727957 99.5385926 263.790905 97.3111118 265.853853 95.7690097 268.604451 94.3982524 271.870786 93.3701843 276.168595 93.8842183 279.950667 95.7690097 282.873177 99.3672479 284.764213 103.47952 285.108038 105.192967 285.108038 107.077758 284.592301 109.819273 283.217002 112.560788 280.638316 114.959613 276.340507 117.187094 271.183136 117.701128"></polygon>
                        <polygon id="Path" points="317.734823 176.204957 315.32805 174.14882 313.608926 172.435374 312.233627 169.35117 311.545978 166.780999 311.545978 163.354106 312.921277 159.241834 314.984225 157.014353 317.047174 155.472251 319.797771 154.101494 323.064106 153.073426 327.361915 153.58746 331.143987 155.472251 334.066497 159.070489 335.957533 163.182761 336.301358 164.896208 336.301358 166.780999 335.785621 169.522514 334.410322 172.264029 331.831636 174.662854 327.533827 176.890335 322.376457 177.404369"></polygon>
                        <polygon id="Path-Copy" points="364.068819 151.467382 361.662046 149.411246 359.942922 147.697799 358.567624 144.613595 357.879974 142.043425 357.879974 138.616531 359.255273 134.504259 361.318221 132.276779 363.38117 130.734677 366.131767 129.363919 369.398102 128.335851 373.695911 128.849885 377.477983 130.734677 380.400493 134.332915 382.291529 138.445187 382.635354 140.158634 382.635354 142.043425 382.119617 144.78494 380.744318 147.526454 378.165632 149.92528 373.867823 152.152761 368.710453 152.666795"></polygon>
                        <polygon id="Path-Copy-2" points="317.734823 126.729807 315.32805 124.673671 313.608926 122.960225 312.233627 119.87602 311.545978 117.30585 311.545978 113.878957 312.921277 109.766685 314.984225 107.539204 317.047174 105.997102 319.797771 104.626345 323.064106 103.598277 327.361915 104.112311 331.143987 105.997102 334.066497 109.59534 335.957533 113.707612 336.301358 115.421059 336.301358 117.30585 335.785621 120.047365 334.410322 122.78888 331.831636 125.187705 327.533827 127.415186 322.376457 127.92922"></polygon>
                        <polygon id="Path-Copy-3" points="274.633431 164.373943 272.226658 162.317807 270.507535 160.60436 269.132236 157.520156 268.444586 154.949986 268.444586 151.523092 269.819885 147.41082 271.882834 145.183339 273.945782 143.641237 276.69638 142.27048 279.962714 141.242412 284.260523 141.756446 288.042595 143.641237 290.965105 147.239475 292.856141 151.351747 293.199966 153.065194 293.199966 154.949986 292.684229 157.6915 291.30893 160.433015 288.730245 162.831841 284.432436 165.059321 279.275065 165.573355"></polygon>
                        <polygon id="Path-Copy-4" points="305.88194 225.680106 303.475167 223.62397 301.756044 221.910523 300.380745 218.826319 299.693095 216.256149 299.693095 212.829255 301.068394 208.716983 303.131343 206.489502 305.194291 204.9474 307.944889 203.576643 311.211223 202.548575 315.509032 203.062609 319.291104 204.9474 322.213614 208.545638 324.10465 212.65791 324.448475 214.371357 324.448475 216.256149 323.932738 218.997663 322.557439 221.739178 319.978754 224.138004 315.680945 226.365484 310.523574 226.879518"></polygon>
                        <polygon id="Path-Copy-5" points="364.068819 213.849092 361.662046 211.792956 359.942922 210.079509 358.567624 206.995305 357.879974 204.425135 357.879974 200.998241 359.255273 196.885969 361.318221 194.658488 363.38117 193.116386 366.131767 191.745629 369.398102 190.717561 373.695911 191.231595 377.477983 193.116386 380.400493 196.714624 382.291529 200.826897 382.635354 202.540343 382.635354 204.425135 382.119617 207.166649 380.744318 209.908164 378.165632 212.30699 373.867823 214.53447 368.710453 215.048504"></polygon>
                        <polygon id="Path" points="261.351843 307.015494 258.94507 304.959358 257.225947 303.245911 255.850648 300.161707 255.162998 297.591537 255.162998 294.164643 256.538297 290.052371 258.601246 287.82489 260.664194 286.282788 263.414792 284.912031 266.681126 283.883963 270.978935 284.397997 274.761007 286.282788 277.683517 289.881026 279.574553 293.993299 279.918378 295.706745 279.918378 297.591537 279.402641 300.333051 278.027342 303.074566 275.448657 305.473392 271.150848 307.700872 265.993477 308.214906"></polygon>
                        <polygon id="Path-Copy" points="307.685839 282.277919 305.279066 280.221783 303.559943 278.508336 302.184644 275.424132 301.496994 272.853962 301.496994 269.427069 302.872293 265.314797 304.935242 263.087316 306.99819 261.545214 309.748788 260.174456 313.015122 259.146388 317.312931 259.660422 321.095003 261.545214 324.017513 265.143452 325.908549 269.255724 326.252374 270.969171 326.252374 272.853962 325.736637 275.595477 324.361338 278.336992 321.782653 280.735817 317.484844 282.963298 312.327473 283.477332"></polygon>
                        <polygon id="Path-Copy-3" points="205.320034 307.015494 202.913261 304.959358 201.194138 303.245911 199.818839 300.161707 199.131189 297.591537 199.131189 294.164643 200.506488 290.052371 202.569436 287.82489 204.632385 286.282788 207.382982 284.912031 210.649317 283.883963 214.947126 284.397997 218.729198 286.282788 221.651708 289.881026 223.542744 293.993299 223.886569 295.706745 223.886569 297.591537 223.370832 300.333051 221.995533 303.074566 219.416848 305.473392 215.119039 307.700872 209.961668 308.214906"></polygon>
                        <polygon id="Path-Copy-4" points="249.498961 356.490643 247.092188 354.434507 245.373064 352.72106 243.997765 349.636856 243.310116 347.066686 243.310116 343.639792 244.685415 339.52752 246.748363 337.300039 248.811311 335.757937 251.561909 334.38718 254.828244 333.359112 259.126053 333.873146 262.908125 335.757937 265.830635 339.356175 267.721671 343.468448 268.065495 345.181894 268.065495 347.066686 267.549758 349.808201 266.174459 352.549715 263.595774 354.948541 259.297965 357.176022 254.140594 357.690056"></polygon>
                        <polygon id="Path-Copy-5" points="104.031764 160.74114 101.624991 158.685004 99.9058671 156.971557 98.5305683 153.887353 97.8429188 151.317183 97.8429188 147.890289 99.2182177 143.778017 101.281166 141.550536 103.344114 140.008434 106.094712 138.637677 109.361047 137.609609 113.658856 138.123643 117.440928 140.008434 120.363438 143.606673 122.254474 147.718945 122.598299 149.432391 122.598299 151.317183 122.082561 154.058698 120.707263 156.800212 118.128577 159.199038 113.830768 161.426519 108.673397 161.940553"></polygon>
                        <polygon id="Path" points="102.869954 340.478654 100.463181 338.422518 98.7440578 336.709072 97.368759 333.624867 96.6811095 331.054697 96.6811095 327.627804 98.0564084 323.515532 100.119357 321.288051 102.182305 319.745949 104.932903 318.375192 108.199238 317.347124 112.497047 317.861158 116.279118 319.745949 119.201629 323.344187 121.092665 327.456459 121.436489 329.169906 121.436489 331.054697 120.920752 333.796212 119.545453 336.537727 116.966768 338.936552 112.668959 341.164033 107.511588 341.678067"></polygon>
                        <polygon id="Path-Copy" points="149.20395 315.74108 146.797177 313.684944 145.078054 311.971497 143.702755 308.887293 143.015106 306.317123 143.015106 302.890229 144.390404 298.777957 146.453353 296.550476 148.516301 295.008374 151.266899 293.637617 154.533234 292.609549 158.831043 293.123583 162.613114 295.008374 165.535625 298.606613 167.426661 302.718885 167.770485 304.432331 167.770485 306.317123 167.254748 309.058638 165.879449 311.800152 163.300764 314.198978 159.002955 316.426459 153.845584 316.940493"></polygon>
                        <polygon id="Path-Copy-2" points="102.869954 291.003505 100.463181 288.947369 98.7440578 287.233922 97.368759 284.149718 96.6811095 281.579548 96.6811095 278.152655 98.0564084 274.040383 100.119357 271.812902 102.182305 270.2708 104.932903 268.900042 108.199238 267.871974 112.497047 268.386008 116.279118 270.2708 119.201629 273.869038 121.092665 277.98131 121.436489 279.694757 121.436489 281.579548 120.920752 284.321063 119.545453 287.062578 116.966768 289.461403 112.668959 291.688884 107.511588 292.202918"></polygon>
                        <polygon id="Path-Copy-6" points="161.056833 23.1923721 158.65006 21.136236 156.930937 19.4227893 155.555638 16.3385851 154.867988 13.7684151 154.867988 10.3415216 156.243287 6.22924943 158.306235 4.00176868 160.369184 2.45966662 163.119781 1.08890923 166.386116 0.060841194 170.683925 0.574875214 174.465997 2.45966662 177.388507 6.05790476 179.279543 10.1701769 179.623368 11.8836236 179.623368 13.7684151 179.107631 16.5099298 177.732332 19.2514446 175.153647 21.65027 170.855838 23.8777508 165.698467 24.3917848"></polygon>
                        <polygon id="Path-Copy-7" points="71.6214455 109.23611 69.2146725 107.179974 67.4955489 105.466527 66.12025 102.382323 65.4326006 99.8121526 65.4326006 96.3852592 66.8078995 92.272987 68.8708478 90.0455063 70.9337961 88.5034042 73.6843938 87.1326468 76.9507286 86.1045788 81.2485376 86.6186128 85.0306095 88.5034042 87.9531196 92.1016423 89.8441556 96.2139145 90.1879803 97.9273612 90.1879803 99.8121526 89.6722432 102.553667 88.2969444 105.295182 85.718259 107.694008 81.42045 109.921488 76.2630792 110.435522"></polygon>
                        <polygon id="Path-Copy-3" points="46.8381453 340.478654 44.4313723 338.422518 42.7122487 336.709072 41.3369498 333.624867 40.6493004 331.054697 40.6493004 327.627804 42.0245993 323.515532 44.0875476 321.288051 46.1504959 319.745949 48.9010936 318.375192 52.1674284 317.347124 56.4652374 317.861158 60.2473093 319.745949 63.1698194 323.344187 65.0608554 327.456459 65.4046801 329.169906 65.4046801 331.054697 64.888943 333.796212 63.5136442 336.537727 60.9349588 338.936552 56.6371498 341.164033 51.479779 341.678067"></polygon>
                        <polygon id="Path-Copy-4" points="205.23576 353.385215 202.828987 351.329079 201.109863 349.615632 199.734564 346.531428 199.046915 343.961258 199.046915 340.534365 200.422214 336.422092 202.485162 334.194612 204.54811 332.65251 207.298708 331.281752 210.565043 330.253684 214.862852 330.767718 218.644924 332.65251 221.567434 336.250748 223.45847 340.36302 223.802294 342.076467 223.802294 343.961258 223.286557 346.702773 221.911258 349.444288 219.332573 351.843113 215.034764 354.070594 209.877393 354.584628"></polygon>
                        <polygon id="Path-Copy-5" points="149.20395 378.12279 146.797177 376.066653 145.078054 374.353207 143.702755 371.269003 143.015106 368.698833 143.015106 365.271939 144.390404 361.159667 146.453353 358.932186 148.516301 357.390084 151.266899 356.019327 154.533234 354.991259 158.831043 355.505293 162.613114 357.390084 165.535625 360.988322 167.426661 365.100594 167.770485 366.814041 167.770485 368.698833 167.254748 371.440347 165.879449 374.181862 163.300764 376.580688 159.002955 378.808168 153.845584 379.322202"></polygon>
                    </g>
                    <g id="DUDE-Copy-5" transform="translate(160.567494, 143.725481) rotate(-315.000000) translate(-160.567494, -143.725481) translate(148.175844, 131.356694)"></g>
                    <g id="DUDE-Copy-6" transform="translate(114.588517, 233.355655) rotate(-315.000000) translate(-114.588517, -233.355655) translate(102.196867, 220.986868)"></g>
                    <g id="DUDE-Copy" transform="translate(381.462126, 208.258284) rotate(-315.000000) translate(-381.462126, -208.258284) translate(369.070476, 195.889497)"></g>
                    <g id="DUDE-Copy-2" transform="translate(381.462126, 345.928264) rotate(-315.000000) translate(-381.462126, -345.928264) translate(369.070476, 333.559477)"></g>
                    <g id="DUDE-Copy-3" transform="translate(248.925347, 398.630054) rotate(-315.000000) translate(-248.925347, -398.630054) translate(236.533697, 386.261266)"></g>
                    <g id="DUDE-Copy-4" transform="translate(113.155963, 310.435223) rotate(-315.000000) translate(-113.155963, -310.435223) translate(100.764313, 298.066435)"></g>
                    <polygon id="Path" fill="#17C37B" points="226.422224 258.809699 224.015451 256.753563 222.296327 255.040116 220.921028 251.955912 220.233379 249.385742 220.233379 245.958849 221.608677 241.846577 223.671626 239.619096 225.734574 238.076994 228.485172 236.706236 231.751507 235.678168 236.049316 236.192202 239.831388 238.076994 242.753898 241.675232 244.644934 245.787504 244.988758 247.500951 244.988758 249.385742 244.473021 252.127257 243.097722 254.868772 240.519037 257.267597 236.221228 259.495078 231.063857 260.009112"></polygon>
                    <polygon id="Path-Copy" fill="#17C37B" points="306.4251 279.343912 304.018327 277.287775 302.299203 275.574329 300.923905 272.490125 300.236255 269.919955 300.236255 266.493061 301.611554 262.380789 303.674502 260.153308 305.737451 258.611206 308.488048 257.240449 311.754383 256.212381 316.052192 256.726415 319.834264 258.611206 322.756774 262.209444 324.64781 266.321716 324.991635 268.035163 324.991635 269.919955 324.475898 272.661469 323.100599 275.402984 320.521914 277.801809 316.224105 280.02929 311.066734 280.543324"></polygon>
                    <polygon id="Path-Copy-2" fill="#17C37B" points="273.662017 243.599172 271.255244 241.543036 269.536121 239.829589 268.160822 236.745385 267.473172 234.175215 267.473172 230.748321 268.848471 226.636049 270.91142 224.408568 272.974368 222.866466 275.724966 221.495709 278.9913 220.467641 283.289109 220.981675 287.071181 222.866466 289.993691 226.464704 291.884727 230.576977 292.228552 232.290423 292.228552 234.175215 291.712815 236.916729 290.337516 239.658244 287.758831 242.05707 283.461022 244.28455 278.303651 244.798584"></polygon>
                    <polygon id="Path-Copy-4" fill="#17C37B" points="266.042696 284.667596 263.635923 282.61146 261.916799 280.898013 260.5415 277.813809 259.853851 275.243639 259.853851 271.816746 261.22915 267.704474 263.292098 265.476993 265.355046 263.934891 268.105644 262.564133 271.371979 261.536065 275.669788 262.050099 279.45186 263.934891 282.37437 267.533129 284.265406 271.645401 284.609231 273.358848 284.609231 275.243639 284.093493 277.985154 282.718195 280.726669 280.139509 283.125494 275.8417 285.352975 270.684329 285.867009"></polygon>
                    <polygon id="Path-Copy-5" fill="#17C37B" points="234.803477 311.286019 232.396704 309.229883 230.677581 307.516437 229.302282 304.432233 228.614632 301.862062 228.614632 298.435169 229.989931 294.322897 232.05288 292.095416 234.115828 290.553314 236.866426 289.182557 240.13276 288.154489 244.430569 288.668523 248.212641 290.553314 251.135151 294.151552 253.026187 298.263824 253.370012 299.977271 253.370012 301.862062 252.854275 304.603577 251.478976 307.345092 248.900291 309.743917 244.602482 311.971398 239.445111 312.485432"></polygon>
                    <polygon id="Path-Copy-2" fill="#17C37B" points="287.322647 322.447649 284.915874 320.391513 283.196751 318.678066 281.821452 315.593862 281.133802 313.023692 281.133802 309.596799 282.509101 305.484527 284.57205 303.257046 286.634998 301.714944 289.385596 300.344186 292.65193 299.316118 296.949739 299.830152 300.731811 301.714944 303.654321 305.313182 305.545357 309.425454 305.889182 311.138901 305.889182 313.023692 305.373445 315.765207 303.998146 318.506722 301.419461 320.905547 297.121652 323.133028 291.964281 323.647062"></polygon>
                </g>
            </g>
        </g>
    </g>
</svg>